#N canvas 129 35 1073 648 16;
#X obj 35 276 catch~ sVoice;
#X obj 35 316 *~ 0.1;
#X obj 35 362 output~;
#X obj 37 49 synth-voice 0;
#X obj 284 499 s goFade;
#X msg 247 390 0;
#X msg 297 390 1;
#X msg 237 420 2;
#X msg 287 420 3;
#X obj 333 53 bng 15 250 50 0 empty empty empty 17 7 0 10 -262144 -1
-1;
#X obj 391 230 random 1000;
#X obj 391 260 + 100;
#X obj 362 133 random 1000;
#X obj 362 163 + 100;
#X obj 420 342 int;
#X obj 460 342 + 1;
#X obj 500 342 % 4;
#X floatatom 420 374 5 0 0 0 - - -;
#X obj 420 410 t f f f;
#X obj 393 446 int;
#X obj 333 76 t b b b b;
#X floatatom 393 477 5 0 0 0 - - -;
#X obj 37 79 synth-voice 1;
#X obj 37 109 synth-voice 2;
#X obj 37 139 synth-voice 3;
#N canvas 32 388 570 397 program-frequency-sender 0;
#X obj 37 37 inlet;
#X obj 187 37 inlet;
#X text 95 35 //index;
#X text 248 35 //value;
#X floatatom 143 84 5 0 0 0 - - -;
#X obj 116 190 int;
#X text 129 131 //frequency value;
#X obj 69 324 send;
#X obj 116 285 symbol;
#X msg 116 255 \$1-program-frequency;
#X floatatom 69 105 5 0 0 0 - - -;
#X obj 69 134 t f b;
#X obj 156 322 f;
#X obj 208 322 int;
#X text 189 285 //create a [symbol] using the input message;
#X connect 0 0 4 0;
#X connect 1 0 10 0;
#X connect 4 0 5 1;
#X connect 5 0 9 0;
#X connect 8 0 7 1;
#X connect 9 0 8 0;
#X connect 10 0 11 0;
#X connect 11 0 7 0;
#X connect 11 1 5 0;
#X restore 487 491 pd program-frequency-sender;
#N canvas 32 388 570 397 carrier-frequency-sender 1;
#X obj 37 37 inlet;
#X obj 187 37 inlet;
#X text 95 35 //index;
#X text 248 35 //value;
#X obj 31 301 s voice-frequency;
#X floatatom 109 141 5 0 0 0 - - -;
#X obj 31 251 pack f f;
#X floatatom 58 111 5 0 0 0 - - -;
#X obj 31 221 int;
#X obj 109 170 t b f;
#X text 170 167 //frequency value;
#X text 71 221 //voice index value;
#X connect 0 0 7 0;
#X connect 1 0 5 0;
#X connect 5 0 9 0;
#X connect 6 0 4 0;
#X connect 7 0 8 1;
#X connect 8 0 6 0;
#X connect 9 0 8 0;
#X connect 9 1 6 1;
#X restore 453 550 pd carrier-frequency-sender;
#X text 535 129 //this would admittedly be cleaner if it was built
to react to changes in the index rather than changes in the value.
it may also be better to include the random generators in the sub-patches
rather than out here.;
#X text 353 49 //generate random program / carrier ƒ and trigger next
voice;
#X text 115 317 //all catch~ gain adjust;
#X connect 0 0 1 0;
#X connect 1 0 2 0;
#X connect 1 0 2 1;
#X connect 5 0 4 0;
#X connect 6 0 4 0;
#X connect 7 0 4 0;
#X connect 8 0 4 0;
#X connect 9 0 20 0;
#X connect 10 0 11 0;
#X connect 11 0 26 1;
#X connect 12 0 13 0;
#X connect 13 0 25 1;
#X connect 14 0 15 0;
#X connect 14 0 17 0;
#X connect 15 0 16 0;
#X connect 16 0 14 1;
#X connect 17 0 18 0;
#X connect 18 0 19 1;
#X connect 18 1 26 0;
#X connect 18 2 25 0;
#X connect 19 0 21 0;
#X connect 20 0 19 0;
#X connect 20 1 12 0;
#X connect 20 2 10 0;
#X connect 20 3 14 0;
#X connect 21 0 4 0;
