#N canvas 162 52 1140 714 16;
#N canvas 0 22 450 278 (subpatch) 0;
#X array amplitudes 128 float 2;
#X coords 0 1 127 0 200 140 1 0 0;
#X restore 612 34 graph;
#X text 611 186 //an array of amplitude values that will be sent to
our array of synth voices;
#N canvas 278 212 450 300 voices 0;
#X obj 45 35 voice 0;
#X obj 45 65 voice 1;
#X obj 45 95 voice 2;
#X obj 45 125 voice 3;
#X obj 45 155 voice 4;
#X obj 45 185 voice 5;
#X obj 45 215 voice 6;
#X obj 45 245 voice 7;
#X obj 45 275 voice 8;
#X obj 45 305 voice 9;
#X obj 45 335 voice 10;
#X obj 45 365 voice 11;
#X obj 45 395 voice 12;
#X obj 45 425 voice 13;
#X obj 45 455 voice 14;
#X obj 45 485 voice 15;
#X obj 45 515 voice 16;
#X obj 45 545 voice 17;
#X obj 45 575 voice 18;
#X obj 45 605 voice 19;
#X obj 45 635 voice 20;
#X obj 45 665 voice 21;
#X obj 45 695 voice 22;
#X obj 45 725 voice 23;
#X obj 45 755 voice 24;
#X obj 45 785 voice 25;
#X obj 45 815 voice 26;
#X obj 45 845 voice 27;
#X obj 45 875 voice 28;
#X obj 45 905 voice 29;
#X obj 45 935 voice 30;
#X obj 45 965 voice 31;
#X obj 45 995 voice 32;
#X obj 45 1025 voice 33;
#X obj 45 1055 voice 34;
#X obj 45 1085 voice 35;
#X obj 45 1115 voice 36;
#X obj 45 1145 voice 37;
#X obj 45 1175 voice 38;
#X obj 45 1205 voice 39;
#X obj 45 1235 voice 40;
#X obj 45 1265 voice 41;
#X obj 45 1295 voice 42;
#X obj 45 1325 voice 43;
#X obj 45 1355 voice 44;
#X obj 45 1385 voice 45;
#X obj 45 1415 voice 46;
#X obj 45 1445 voice 47;
#X obj 45 1475 voice 48;
#X obj 45 1505 voice 49;
#X obj 45 1535 voice 50;
#X obj 45 1565 voice 51;
#X obj 45 1595 voice 52;
#X obj 45 1625 voice 53;
#X obj 45 1655 voice 54;
#X obj 45 1685 voice 55;
#X obj 45 1715 voice 56;
#X obj 45 1745 voice 57;
#X obj 45 1775 voice 58;
#X obj 45 1805 voice 59;
#X obj 45 1835 voice 60;
#X obj 45 1865 voice 61;
#X obj 45 1895 voice 62;
#X obj 45 1925 voice 63;
#X obj 45 1955 voice 64;
#X obj 45 1985 voice 65;
#X obj 45 2015 voice 66;
#X obj 45 2045 voice 67;
#X obj 45 2075 voice 68;
#X obj 45 2105 voice 69;
#X obj 45 2135 voice 70;
#X obj 45 2165 voice 71;
#X obj 45 2195 voice 72;
#X obj 45 2225 voice 73;
#X obj 45 2255 voice 74;
#X obj 45 2285 voice 75;
#X obj 45 2315 voice 76;
#X obj 45 2345 voice 77;
#X obj 45 2375 voice 78;
#X obj 45 2405 voice 79;
#X obj 45 2435 voice 80;
#X obj 45 2465 voice 81;
#X obj 45 2495 voice 82;
#X obj 45 2525 voice 83;
#X obj 45 2555 voice 84;
#X obj 45 2585 voice 85;
#X obj 45 2615 voice 86;
#X obj 45 2645 voice 87;
#X obj 45 2675 voice 88;
#X obj 45 2705 voice 89;
#X obj 45 2735 voice 90;
#X obj 45 2765 voice 91;
#X obj 45 2795 voice 92;
#X obj 45 2825 voice 93;
#X obj 45 2855 voice 94;
#X obj 45 2885 voice 95;
#X obj 45 2915 voice 96;
#X obj 45 2945 voice 97;
#X obj 45 2975 voice 98;
#X obj 45 3005 voice 99;
#X obj 45 3035 voice 100;
#X obj 45 3065 voice 101;
#X obj 45 3095 voice 102;
#X obj 45 3125 voice 103;
#X obj 45 3155 voice 104;
#X obj 45 3185 voice 105;
#X obj 45 3215 voice 106;
#X obj 45 3245 voice 107;
#X obj 45 3275 voice 108;
#X obj 45 3305 voice 109;
#X obj 45 3335 voice 110;
#X obj 45 3365 voice 111;
#X obj 45 3395 voice 112;
#X obj 45 3425 voice 113;
#X obj 45 3455 voice 114;
#X obj 45 3485 voice 115;
#X obj 45 3515 voice 116;
#X obj 45 3545 voice 117;
#X obj 45 3575 voice 118;
#X obj 45 3605 voice 119;
#X obj 45 3635 voice 120;
#X obj 45 3665 voice 121;
#X obj 45 3695 voice 122;
#X obj 45 3725 voice 123;
#X obj 45 3755 voice 124;
#X obj 45 3785 voice 125;
#X obj 45 3815 voice 126;
#X obj 45 3845 voice 127;
#X restore 14 32 pd voices;
#X obj 15 79 catch~ allVoices;
#X obj 15 124 /~ 256;
#X obj 15 172 output~;
#X obj 615 463 int;
#X obj 655 463 + 1;
#X msg 642 417 0;
#X obj 615 421 bng 15 250 50 0 empty empty empty 17 7 0 10 -262144
-1 -1;
#X obj 662 554 tabread amplitudes;
#X obj 615 615 pack;
#X obj 615 656 s amp;
#X text 628 623 //send list of (index \, value);
#X floatatom 631 494 5 0 0 0 - - -;
#X floatatom 889 605 5 0 0 0 - - -;
#X obj 614 245 tgl 15 0 empty empty empty 17 7 0 10 -262144 -1 -1 0
1;
#X obj 615 524 t f f;
#X obj 615 387 until;
#X msg 615 313 128;
#X obj 615 342 t f b;
#X obj 19 447 int;
#X obj 59 447 + 1;
#X msg 46 401 0;
#X obj 19 405 bng 15 250 50 0 empty empty empty 17 7 0 10 -262144 -1
-1;
#X obj 19 371 until;
#X msg 19 297 128;
#X obj 19 326 t f b;
#X obj 18 485 t f f;
#X obj 18 594 pack;
#X obj 18 632 s freq;
#X obj 65 544 + 50;
#X obj 614 285 metro 50;
#X obj 662 584 clip 0 1;
#X obj 65 515 pow 1.87;
#X text 637 239 //start polling the array to send the amplitudes to
their voice destination;
#X text 688 387 //NEVER send [until] a bang. instead \, send it an
int value with the number of consecutive bangs you'd like it to send
out. this will happen in a closed loop.;
#X text 122 31 //all voice instances;
#X text 87 122 //output gain adjustment;
#X text 155 514 //calculate a ƒ for each instance by scaling the voice
index. you can try different methods here to create different tunings
(simple [*]? different [pow]?);
#X text 73 295 //tell [until] to output 128 bangs in a row.;
#X connect 3 0 4 0;
#X connect 4 0 5 0;
#X connect 4 0 5 1;
#X connect 6 0 7 0;
#X connect 6 0 14 0;
#X connect 6 0 17 0;
#X connect 7 0 6 1;
#X connect 8 0 6 1;
#X connect 9 0 6 0;
#X connect 10 0 33 0;
#X connect 11 0 12 0;
#X connect 16 0 32 0;
#X connect 17 0 11 0;
#X connect 17 1 10 0;
#X connect 18 0 9 0;
#X connect 19 0 20 0;
#X connect 20 0 18 0;
#X connect 20 1 8 0;
#X connect 21 0 22 0;
#X connect 21 0 28 0;
#X connect 22 0 21 1;
#X connect 23 0 21 1;
#X connect 24 0 21 0;
#X connect 25 0 24 0;
#X connect 26 0 27 0;
#X connect 27 0 25 0;
#X connect 27 1 23 0;
#X connect 28 0 29 0;
#X connect 28 1 34 0;
#X connect 29 0 30 0;
#X connect 31 0 29 1;
#X connect 32 0 19 0;
#X connect 33 0 11 1;
#X connect 34 0 31 0;
