#N canvas 105 83 684 592 16;
#X obj 104 283 osc~;
#X obj 104 467 *~;
#X obj 131 435 line~;
#X text 15 4 //voice;
#X text 203 190 //carrier oscillator;
#X msg 131 396 1 1000;
#X msg 221 396 0 1000;
#X obj 131 360 loadbang;
#X text 250 511 //many-to-one audio 'send' object;
#X obj 370 186 r voice-frequency;
#X obj 370 215 route \$1;
#X obj 478 116 route 1 2 56 1200;
#X floatatom 370 243 5 0 0 0 - - -;
#X obj 389 341 t b b;
#X obj 436 371 delay 2000;
#X obj 389 280 r goFade;
#X obj 389 310 select \$1;
#X obj 103 126 osc~;
#X text 163 93 //program oscillator;
#X obj 104 512 output~;
#X floatatom 103 95 5 0 0 0 - - -;
#X obj 104 222 +~;
#X obj 104 182 *~;
#X floatatom 145 191 5 0 0 0 - - -;
#X floatatom 147 142 5 0 0 0 - - -;
#X text 202 141 //peak ƒ deviation (modulation index);
#X connect 0 0 1 0;
#X connect 1 0 19 0;
#X connect 1 0 19 1;
#X connect 2 0 1 1;
#X connect 5 0 2 0;
#X connect 6 0 2 0;
#X connect 7 0 5 0;
#X connect 9 0 10 0;
#X connect 10 0 12 0;
#X connect 13 0 5 0;
#X connect 13 1 14 0;
#X connect 14 0 6 0;
#X connect 15 0 16 0;
#X connect 16 0 13 0;
#X connect 17 0 22 0;
#X connect 21 0 0 0;
#X connect 22 0 21 0;
#X connect 23 0 21 1;
#X connect 24 0 22 1;
