#N canvas 105 72 690 560 16;
#X obj 48 278 osc~;
#X obj 239 445 *~;
#X obj 266 413 line~;
#X text 325 14 //tone \, fade up / down (ms) \, rate;
#X text 454 108 //r rate;
#X obj 333 107 r grainRate;
#X obj 333 137 route \$1;
#X obj 333 209 t f f;
#X obj 380 241 * 0.5;
#X msg 266 350 1;
#X msg 316 350 0;
#X obj 380 272 t f f;
#X obj 266 53 r start;
#X text 105 19 //r freq offset;
#X obj 48 117 random;
#X obj 105 86 route \$1;
#X obj 105 56 r freqOffset;
#X obj 48 241 + 220;
#X obj 266 272 t b b b;
#X obj 239 485 throw~ allGrains;
#X obj 427 177 r grainSize;
#X obj 427 206 t b f;
#X obj 333 175 f;
#X obj 95 202 r baseFreq;
#X obj 266 241 metro 100;
#X obj 316 322 delay 50;
#X obj 266 382 pack f 50;
#X connect 0 0 1 0;
#X connect 1 0 19 0;
#X connect 2 0 1 1;
#X connect 5 0 6 0;
#X connect 6 0 22 0;
#X connect 7 0 24 1;
#X connect 7 1 8 0;
#X connect 8 0 11 0;
#X connect 9 0 26 0;
#X connect 10 0 26 0;
#X connect 11 0 25 1;
#X connect 11 1 26 1;
#X connect 12 0 24 0;
#X connect 14 0 17 0;
#X connect 15 0 14 1;
#X connect 16 0 15 0;
#X connect 17 0 0 0;
#X connect 18 0 9 0;
#X connect 18 1 25 0;
#X connect 18 2 14 0;
#X connect 20 0 21 0;
#X connect 21 0 22 0;
#X connect 21 1 8 1;
#X connect 22 0 7 0;
#X connect 23 0 17 1;
#X connect 24 0 18 0;
#X connect 25 0 10 0;
#X connect 26 0 2 0;
