#N canvas 413 179 924 621 16;
#X obj 36 106 grain-voice 0;
#X obj 274 204 int;
#X obj 314 204 + 1;
#X msg 301 158 0;
#X obj 274 162 bng 15 250 50 0 empty empty empty 17 7 0 10 -262144
-1 -1;
#X obj 274 128 until;
#X obj 274 83 t f b;
#X msg 274 53 5;
#X obj 274 236 t f b;
#X obj 274 351 pack f f;
#X obj 274 389 s grainRate;
#X obj 36 4 tgl 30 0 empty empty empty 17 7 0 10 -204786 -1 -1 1 1
;
#X obj 36 44 s start;
#X obj 88 291 catch~ allGrains;
#X obj 88 328 *~ 0.1;
#X obj 88 366 output~;
#X obj 508 207 int;
#X obj 548 207 + 1;
#X msg 535 161 0;
#X obj 508 165 bng 15 250 50 0 empty empty empty 17 7 0 10 -262144
-1 -1;
#X obj 508 131 until;
#X obj 508 86 t f b;
#X msg 508 56 5;
#X obj 508 239 t f b;
#X obj 508 354 pack f f;
#X obj 508 392 s freqOffset;
#X obj 748 56 s grainSize;
#X floatatom 748 23 5 0 0 0 - - -;
#X obj 508 24 t b f;
#X obj 585 320 f;
#X floatatom 508 -6 5 0 0 0 - - -;
#X obj 274 22 t b f;
#X floatatom 274 -8 5 0 0 0 - - -;
#X obj 351 320 +;
#X obj 351 291 random 30;
#X text 73 8 //granulation start;
#X text 336 -8 //grain rate (ms);
#X floatatom 748 95 5 0 0 0 - - -;
#X obj 748 128 s baseFreq;
#X text 744 -10 //global variables:;
#X text 564 -6 //random ƒ amount;
#X obj 36 136 grain-voice 1;
#X obj 36 166 grain-voice 2;
#X obj 36 196 grain-voice 3;
#X obj 36 226 grain-voice 4;
#X connect 1 0 2 0;
#X connect 1 0 8 0;
#X connect 2 0 1 1;
#X connect 3 0 1 1;
#X connect 4 0 1 0;
#X connect 5 0 4 0;
#X connect 6 0 5 0;
#X connect 6 1 3 0;
#X connect 7 0 6 0;
#X connect 8 0 9 0;
#X connect 8 1 34 0;
#X connect 9 0 10 0;
#X connect 11 0 12 0;
#X connect 13 0 14 0;
#X connect 14 0 15 0;
#X connect 14 0 15 1;
#X connect 16 0 17 0;
#X connect 16 0 23 0;
#X connect 17 0 16 1;
#X connect 18 0 16 1;
#X connect 19 0 16 0;
#X connect 20 0 19 0;
#X connect 21 0 20 0;
#X connect 21 1 18 0;
#X connect 22 0 21 0;
#X connect 23 0 24 0;
#X connect 23 1 29 0;
#X connect 24 0 25 0;
#X connect 27 0 26 0;
#X connect 28 0 22 0;
#X connect 28 1 29 1;
#X connect 29 0 24 1;
#X connect 30 0 28 0;
#X connect 31 0 7 0;
#X connect 31 1 33 1;
#X connect 32 0 31 0;
#X connect 33 0 9 1;
#X connect 34 0 33 0;
#X connect 37 0 38 0;
