#N canvas 105 36 751 635 16;
#X obj 109 116 osc~;
#X obj 109 476 *~;
#X obj 136 444 line~;
#X text 20 13 //voice;
#X obj 109 316 *~;
#X floatatom 136 193 5 0 0 0 - - -;
#X obj 136 254 *~ 0.5;
#X obj 136 286 +~ 0.5;
#X text 162 116 //carrier oscillator;
#X text 226 223 //program oscillator;
#X msg 136 405 1 1000;
#X msg 226 405 0 1000;
#X obj 136 225 osc~ 100;
#X obj 136 369 loadbang;
#X obj 109 521 throw~ sVoice;
#X text 255 520 //many-to-one audio 'send' object;
#X obj 109 30 r voice-frequency;
#X obj 109 59 route \$1;
#X obj 366 54 route 1 2 56 1200;
#X floatatom 109 87 5 0 0 0 - - -;
#X obj 136 160 r \$1-program-frequency;
#X obj 394 350 t b b;
#X obj 441 380 delay 2000;
#X obj 394 289 r goFade;
#X text 154 315 //gain range should be 0-1;
#X obj 394 319 select \$1;
#X connect 0 0 4 0;
#X connect 1 0 14 0;
#X connect 2 0 1 1;
#X connect 4 0 1 0;
#X connect 5 0 12 0;
#X connect 6 0 7 0;
#X connect 7 0 4 1;
#X connect 10 0 2 0;
#X connect 11 0 2 0;
#X connect 12 0 6 0;
#X connect 13 0 10 0;
#X connect 16 0 17 0;
#X connect 17 0 19 0;
#X connect 19 0 0 0;
#X connect 20 0 5 0;
#X connect 21 0 10 0;
#X connect 21 1 22 0;
#X connect 22 0 11 0;
#X connect 23 0 25 0;
#X connect 25 0 21 0;
