#N canvas 34 99 592 388 16;
#X obj 113 137 osc~;
#X obj 113 284 *~;
#X obj 140 254 line~;
#X msg 140 225 \$1 2;
#X obj 113 319 throw~ allVoices;
#X obj 113 104 route \$1;
#X obj 113 74 r freq;
#X obj 140 197 route \$1;
#X obj 140 167 r amp;
#X floatatom 224 145 5 0 0 0 - - -;
#X connect 0 0 1 0;
#X connect 1 0 4 0;
#X connect 2 0 1 1;
#X connect 3 0 2 0;
#X connect 5 0 0 0;
#X connect 5 0 9 0;
#X connect 6 0 5 0;
#X connect 7 0 3 0;
#X connect 8 0 7 0;
