#N canvas 153 166 846 460 10;
#X obj 86 40 adc~;
#X obj 86 184 tabwrite~ inputArray;
#N canvas 0 22 450 278 (subpatch) 0;
#X array inputArray 480000 float 2;
#X coords 0 1 479999 -1 200 140 1;
#X restore 431 46 graph;
#X msg 210 113 stop;
#X obj 307 163 timer;
#X obj 334 142 bng 15 250 50 0 empty empty empty 17 7 0 10 -262144
-1 -1;
#X obj 307 127 bng 15 250 50 0 empty empty empty 17 7 0 10 -262144
-1 -1;
#X obj 334 212 samplerate~;
#X obj 307 190 t f b;
#X obj 334 235 / 1000;
#X obj 307 261 *;
#X floatatom 307 307 7 0 0 0 - - -;
#X obj 307 284 int;
#X obj 292 340 f;
#X msg 334 120 pause;
#X floatatom 186 44 5 0 0 0 - - -;
#X obj 138 73 pack s f;
#X msg 136 33 symbol start;
#X msg 132 140 start \$1;
#X msg 212 293 resume;
#X obj 212 314 bng 15 250 50 0 empty empty empty 17 7 0 10 -262144
-1 -1;
#X msg 101 110 start;
#X obj 471 316 output~;
#X obj 473 294 tabplay~ inputArray;
#X obj 477 272 bng 15 250 50 0 empty empty empty 17 7 0 10 -262144
-1 -1;
#X msg 558 209 \; inputArray const 0;
#X msg 355 141 stop;
#X floatatom 292 364 5 0 0 0 - - -;
#X connect 0 0 1 0;
#X connect 3 0 1 0;
#X connect 4 0 8 0;
#X connect 5 0 4 1;
#X connect 6 0 4 0;
#X connect 7 0 9 0;
#X connect 8 0 10 0;
#X connect 8 1 7 0;
#X connect 9 0 10 1;
#X connect 10 0 12 0;
#X connect 11 0 13 1;
#X connect 12 0 11 0;
#X connect 13 0 18 0;
#X connect 13 0 27 0;
#X connect 14 0 5 0;
#X connect 14 0 26 0;
#X connect 15 0 16 1;
#X connect 16 0 1 0;
#X connect 17 0 16 0;
#X connect 18 0 1 0;
#X connect 19 0 20 0;
#X connect 20 0 13 0;
#X connect 21 0 1 0;
#X connect 21 0 6 0;
#X connect 23 0 22 0;
#X connect 23 0 22 1;
#X connect 24 0 23 0;
#X connect 26 0 1 0;
