#N canvas 0 22 450 300 10;
#X obj 75 44 inlet;
#X obj 75 104 * \$1;
#X obj 75 130 int;
#X obj 75 186 outlet;
#X obj 75 73 moses 1;
#X obj 114 113 \$1;
#X obj 114 135 - 1;
#X obj 114 95 bng 15 250 50 0 empty empty empty 17 7 0 10 -262144 -1
-1;
#X connect 0 0 4 0;
#X connect 1 0 2 0;
#X connect 2 0 3 0;
#X connect 4 0 1 0;
#X connect 4 1 7 0;
#X connect 5 0 6 0;
#X connect 6 0 3 0;
#X connect 7 0 5 0;
