#N canvas 482 23 863 642 16;
#X obj 73 23 tgl 15 0 empty empty empty 17 7 0 10 -262144 -1 -1 1 1
;
#X obj 73 45 gemhead;
#X obj 334 93 gemwin;
#X msg 334 63 create;
#X msg 414 63 destroy;
#X obj 73 76 pix_video;
#X obj 73 303 pix_texture;
#X obj 73 178 pix_blob;
#X floatatom 168 213 5 0 0 0 - - -;
#X floatatom 144 241 5 0 0 0 - - -;
#X floatatom 109 273 5 0 0 0 - - -;
#X obj 73 108 pix_rgba;
#X text 164 272 //x;
#X text 200 241 //y;
#X text 222 213 //value;
#X obj 259 292 min;
#X obj 298 292 f;
#X obj 389 295 f;
#X obj 350 295 max;
#X floatatom 351 324 5 0 0 0 - - -;
#X floatatom 258 320 5 0 0 0 - - -;
#X msg 281 257 999;
#X obj 408 186 pix_movement2;
#X floatatom 469 131 5 0 0 0 - - -;
#X msg 424 131 0;
#X floatatom 593 133 5 0 0 0 - - -;
#X msg 548 133 100;
#X obj 409 216 pix_blob;
#X floatatom 504 251 5 0 0 0 - - -;
#X floatatom 480 279 5 0 0 0 - - -;
#X floatatom 445 311 5 0 0 0 - - -;
#X text 500 310 //x;
#X text 536 279 //y;
#X text 558 251 //value;
#X obj 620 302 f;
#X obj 581 302 max;
#X floatatom 582 331 5 0 0 0 - - -;
#X msg 608 270 0;
#X obj 442 358 phasor~ 133;
#X obj 452 388 phasor~ 133.3;
#X obj 462 418 phasor~ 133.6;
#X obj 472 448 phasor~ 133.9;
#X obj 450 581 output~;
#X obj 450 486 +~ -0.5;
#X obj 450 549 *~;
#X obj 658 556 line~;
#X msg 658 521 \$1 5;
#X msg 719 521 \$1 1000;
#X obj 658 489 f;
#X obj 719 489 f;
#X obj 657 346 t f f;
#X obj 658 448 select 0 1;
#X obj 658 417 <;
#X obj 658 584 snapshot~;
#X obj 658 380 t f b;
#X obj 373 477 -;
#X obj 373 511 > 0;
#X obj 373 541 tgl 15 0 empty empty empty 17 7 0 10 -262144 -1 -1 1
1;
#X obj 373 439 t f f;
#X floatatom 373 399 5 0 0 0 - - -;
#X obj 108 423 pix_pix2sig~;
#X obj 132 471 show~;
#X obj 182 471 show~;
#X obj 232 471 show~;
#X obj 73 351 rectangle 10 10;
#X obj 204 524 block~ 1024;
#X msg 317 28 destroy \, reset \, dimen 32 32 \, create \, 1;
#X connect 0 0 1 0;
#X connect 1 0 5 0;
#X connect 3 0 2 0;
#X connect 4 0 2 0;
#X connect 5 0 11 0;
#X connect 6 0 64 0;
#X connect 7 1 10 0;
#X connect 7 2 9 0;
#X connect 7 3 8 0;
#X connect 8 0 15 0;
#X connect 8 0 18 0;
#X connect 11 0 7 0;
#X connect 11 0 22 0;
#X connect 11 0 60 0;
#X connect 15 0 16 0;
#X connect 15 0 20 0;
#X connect 16 0 15 1;
#X connect 17 0 18 1;
#X connect 18 0 17 0;
#X connect 18 0 19 0;
#X connect 21 0 15 1;
#X connect 22 0 27 0;
#X connect 23 0 22 1;
#X connect 24 0 22 1;
#X connect 25 0 22 2;
#X connect 26 0 22 2;
#X connect 27 1 30 0;
#X connect 27 2 29 0;
#X connect 27 3 28 0;
#X connect 28 0 35 0;
#X connect 28 0 50 0;
#X connect 34 0 35 1;
#X connect 35 0 34 0;
#X connect 35 0 36 0;
#X connect 37 0 35 1;
#X connect 38 0 43 0;
#X connect 39 0 43 0;
#X connect 40 0 43 0;
#X connect 41 0 43 0;
#X connect 43 0 44 0;
#X connect 44 0 42 0;
#X connect 44 0 42 1;
#X connect 45 0 44 1;
#X connect 45 0 53 0;
#X connect 46 0 45 0;
#X connect 47 0 45 0;
#X connect 48 0 46 0;
#X connect 49 0 47 0;
#X connect 50 0 54 0;
#X connect 50 1 49 1;
#X connect 50 1 48 1;
#X connect 51 0 48 0;
#X connect 51 1 49 0;
#X connect 52 0 51 0;
#X connect 53 0 52 1;
#X connect 54 0 52 0;
#X connect 54 1 53 0;
#X connect 55 0 56 0;
#X connect 56 0 57 0;
#X connect 58 0 55 1;
#X connect 58 1 55 0;
#X connect 59 0 58 0;
#X connect 60 0 6 0;
#X connect 60 1 61 0;
#X connect 60 2 62 0;
#X connect 60 3 63 0;
#X connect 66 0 2 0;
