#N canvas 628 54 756 619 10;
#X obj 316 96 gemwin;
#X msg 330 73 destroy;
#X obj 109 91 gemhead;
#X obj 109 114 pix_video;
#X obj 90 195 pix_texture;
#X obj 109 70 tgl 15 0 empty empty empty 17 7 0 10 -262144 -1 -1 1
1;
#X floatatom 114 207 5 0 0 0 - - -;
#X floatatom 172 208 5 0 0 0 - - -;
#X obj 306 167 pix_blob;
#X floatatom 306 202 5 0 0 0 - - -;
#X floatatom 342 201 5 0 0 0 - - -;
#X floatatom 373 199 5 0 0 0 - - -;
#X obj 425 203 pix_blob;
#X floatatom 425 238 5 0 0 0 - - -;
#X floatatom 461 237 5 0 0 0 - - -;
#X floatatom 492 235 5 0 0 0 - - -;
#X obj 283 243 pix_pix2sig~;
#X msg 317 49 reset \, dimen 64 64 \, create \, 1;
#X obj 355 278 snapshot~;
#X obj 325 298 snapshot~;
#X obj 295 278 snapshot~;
#X obj 265 298 snapshot~;
#X floatatom 363 326 5 0 0 0 - - -;
#X floatatom 323 326 5 0 0 0 - - -;
#X floatatom 283 326 5 0 0 0 - - -;
#X floatatom 243 326 5 0 0 0 - - -;
#X obj 431 305 metro 50;
#X obj 431 285 tgl 15 0 empty empty empty 17 7 0 10 -262144 -1 -1 1
1;
#X obj 296 217 pix_rgba;
#X msg 398 71 create;
#X obj 428 134 pix_movement2;
#X floatatom 475 96 5 0 0 0 - - -;
#X floatatom 525 85 5 0 0 0 - - -;
#X msg 537 109 100;
#X msg 483 109 0;
#X msg 332 121 0;
#X msg 280 25 destroy \, reset \, dimen 640 480 \, create \, 1;
#X obj 81 257 rectangle 4 3;
#X msg 384 98 dimen 640 480;
#X msg 376 120 reset;
#X msg 230 67 1;
#X obj 306 146 pix_rgba;
#X obj 505 269 max;
#X obj 533 270 f;
#X floatatom 508 291 5 0 0 0 - - -;
#X obj 477 546 *~;
#X obj 589 478 line~;
#X obj 478 541 output~;
#X obj 472 445 phasor~ 133;
#X obj 482 465 phasor~ 133.3;
#X obj 492 485 phasor~ 133.6;
#X obj 502 505 phasor~ 133.9;
#X obj 584 387 f;
#X obj 613 329 select 0 1;
#X floatatom 629 501 5 0 0 0 - - -;
#X obj 586 267 t f f;
#X obj 638 395 f;
#X floatatom 542 408 5 0 0 0 - - -;
#X obj 603 302 <;
#X obj 113 405 hsl 128 15 0 1 0 0 empty empty empty -2 -8 0 10 -262144
-1 -1 10300 1;
#X obj 167 564 spigot;
#X obj 161 471 moses 0.6;
#X floatatom 110 427 5 0 0 0 - - -;
#X obj 212 494 t b b;
#X msg 230 538 0;
#X msg 200 538 1;
#X obj 629 478 line 0 1;
#X msg 630 415 \$1 500;
#X obj 110 448 moses 0.3;
#X obj 167 594 bng 15 250 50 0 empty empty empty 17 7 0 10 -262144
-1 -1;
#X msg 590 415 \$1 80;
#X connect 1 0 0 0;
#X connect 2 0 3 0;
#X connect 3 0 28 0;
#X connect 3 0 41 0;
#X connect 4 0 37 0;
#X connect 5 0 2 0;
#X connect 6 0 37 1;
#X connect 7 0 37 2;
#X connect 8 1 9 0;
#X connect 8 2 10 0;
#X connect 8 3 11 0;
#X connect 12 0 4 0;
#X connect 12 1 13 0;
#X connect 12 2 14 0;
#X connect 12 3 15 0;
#X connect 15 0 42 0;
#X connect 15 0 55 0;
#X connect 16 1 21 0;
#X connect 16 2 20 0;
#X connect 16 3 19 0;
#X connect 16 4 18 0;
#X connect 17 0 0 0;
#X connect 18 0 22 0;
#X connect 19 0 23 0;
#X connect 20 0 24 0;
#X connect 21 0 25 0;
#X connect 26 0 18 0;
#X connect 26 0 19 0;
#X connect 26 0 20 0;
#X connect 26 0 21 0;
#X connect 27 0 26 0;
#X connect 28 0 16 0;
#X connect 29 0 0 0;
#X connect 30 0 12 0;
#X connect 31 0 30 1;
#X connect 32 0 30 2;
#X connect 33 0 30 2;
#X connect 34 0 30 1;
#X connect 35 0 8 1;
#X connect 36 0 0 0;
#X connect 38 0 0 0;
#X connect 39 0 0 0;
#X connect 40 0 0 0;
#X connect 41 0 8 0;
#X connect 41 0 30 0;
#X connect 42 0 43 0;
#X connect 42 0 44 0;
#X connect 43 0 42 1;
#X connect 45 0 47 0;
#X connect 45 0 47 1;
#X connect 46 0 45 1;
#X connect 48 0 45 0;
#X connect 49 0 45 0;
#X connect 50 0 45 0;
#X connect 51 0 45 0;
#X connect 52 0 70 0;
#X connect 52 0 57 0;
#X connect 53 0 52 0;
#X connect 53 1 56 0;
#X connect 55 0 58 0;
#X connect 55 1 52 1;
#X connect 55 1 56 1;
#X connect 56 0 67 0;
#X connect 58 0 53 0;
#X connect 59 0 62 0;
#X connect 60 0 69 0;
#X connect 61 1 63 0;
#X connect 62 0 68 0;
#X connect 63 0 64 0;
#X connect 63 1 60 0;
#X connect 64 0 60 1;
#X connect 65 0 60 1;
#X connect 66 0 54 0;
#X connect 66 0 58 1;
#X connect 67 0 46 0;
#X connect 67 0 66 0;
#X connect 68 0 65 0;
#X connect 68 1 61 0;
#X connect 70 0 46 0;
#X connect 70 0 66 0;
