#N canvas 204 23 839 612 16;
#X declare -lib mrpeach;
#X text 37 27 //open sound control OSC;
#X text 36 62 //network communication protocol \, using UDP;
#X text 36 82 //wifi \, ethernet;
#X text 36 102 //local;
#X text 35 132 //ip address of target \, port # (16 bit \, 0-65535)
;
#X text 34 158 //9999;
#X text 34 188 //'localhost' or 127.0.0.1;
#X obj 38 311 import mrpeach;
#X text 193 311 //import library containing osc objects;
#X text 198 384 //listen to incoming packets on port 9999;
#X obj 37 417 unpackOSC;
#X text 37 230 //message format:;
#X text 34 266 /gyrosc/gyro 0.523412 1.2399 0.249385;
#X obj 37 450 routeOSC /gyrosc;
#X obj 37 480 routeOSC /gyro /accel /comp;
#X obj 37 385 udpreceive 4444;
#X obj 37 515 unpack f f f;
#X floatatom 37 546 5 0 0 0 - - -;
#X floatatom 95 546 5 0 0 0 - - -;
#X floatatom 154 546 5 0 0 0 - - -;
#X connect 10 0 13 0;
#X connect 13 0 14 0;
#X connect 14 0 16 0;
#X connect 15 0 10 0;
#X connect 16 0 17 0;
#X connect 16 1 18 0;
#X connect 16 2 19 0;
