#N canvas 62 23 1076 673 16;
#X text 26 22 //audio input;
#X obj 111 326 dac~;
#X obj 110 45 adc~;
#X obj 217 82 osc~;
#X obj 170 123 *~ 0.5;
#X obj 170 151 +~ 0.5;
#X floatatom 217 55 5 0 0 0 - - -;
#X floatatom 68 166 5 0 0 0 - - -;
#X floatatom 259 167 5 0 0 0 - - -;
#X obj 262 196 hsl 128 15 0 127 0 0 empty empty empty -2 -8 0 10 -262144
-1 -1 0 1;
#X obj 259 139 env~ 2048;
#X floatatom 390 115 5 0 0 0 - - -;
#X obj 390 143 mtof;
#X obj 67 204 osc~;
#X obj 391 84 sigmund~ pitch env;
#X floatatom 569 118 5 0 0 0 - - -;
#X obj 569 145 dbtorms;
#X floatatom 568 176 5 0 0 0 - - -;
#X obj 75 260 *~;
#X obj 164 265 line~;
#X msg 165 234 \$1 3;
#X obj 429 260 sigmund~ -npeaks 5 peaks;
#X obj 427 296 route 0 1 2 3 4;
#X obj 394 338 unpack f f f f;
#X floatatom 394 375 5 0 0 0 - - -;
#X floatatom 417 400 5 0 0 0 - - -;
#X floatatom 455 373 5 0 0 0 - - -;
#X floatatom 478 400 5 0 0 0 - - -;
#X obj 556 340 unpack f f f f;
#X floatatom 556 377 5 0 0 0 - - -;
#X floatatom 579 402 5 0 0 0 - - -;
#X floatatom 617 375 5 0 0 0 - - -;
#X floatatom 640 402 5 0 0 0 - - -;
#X obj 716 337 unpack f f f f;
#X floatatom 716 374 5 0 0 0 - - -;
#X floatatom 739 399 5 0 0 0 - - -;
#X floatatom 777 372 5 0 0 0 - - -;
#X floatatom 800 399 5 0 0 0 - - -;
#X obj 754 227 unpack f f f f;
#X floatatom 754 264 5 0 0 0 - - -;
#X floatatom 777 289 5 0 0 0 - - -;
#X floatatom 815 262 5 0 0 0 - - -;
#X floatatom 838 289 5 0 0 0 - - -;
#X obj 774 125 unpack f f f f;
#X floatatom 774 162 5 0 0 0 - - -;
#X floatatom 797 187 5 0 0 0 - - -;
#X floatatom 835 160 5 0 0 0 - - -;
#X floatatom 858 187 5 0 0 0 - - -;
#X obj 463 477 osc~;
#X obj 464 519 *~;
#X obj 513 477 osc~;
#X obj 514 519 *~;
#X obj 563 477 osc~;
#X obj 564 519 *~;
#X obj 613 477 osc~;
#X obj 614 519 *~;
#X obj 663 477 osc~;
#X obj 664 519 *~;
#X obj 467 566 +~;
#X obj 466 603 output~;
#X obj 723 563 delwrite~ del 1000;
#X obj 723 615 delread~ del 1000;
#X obj 461 446 * 2;
#X obj 501 446 * 2;
#X obj 561 446 * 2;
#X obj 601 446 * 2;
#X obj 651 446 * 2;
#X floatatom 736 436 5 0 0 0 - - -;
#X connect 2 0 21 0;
#X connect 4 0 5 0;
#X connect 6 0 3 0;
#X connect 7 0 13 0;
#X connect 8 0 9 0;
#X connect 10 0 8 0;
#X connect 11 0 12 0;
#X connect 12 0 7 0;
#X connect 14 0 11 0;
#X connect 14 1 15 0;
#X connect 15 0 16 0;
#X connect 16 0 17 0;
#X connect 17 0 20 0;
#X connect 18 0 1 0;
#X connect 18 0 1 1;
#X connect 19 0 18 1;
#X connect 20 0 19 0;
#X connect 21 0 22 0;
#X connect 22 0 23 0;
#X connect 22 1 28 0;
#X connect 22 2 33 0;
#X connect 22 3 38 0;
#X connect 22 4 43 0;
#X connect 23 0 24 0;
#X connect 23 1 25 0;
#X connect 23 2 26 0;
#X connect 23 3 27 0;
#X connect 24 0 62 0;
#X connect 25 0 49 1;
#X connect 28 0 29 0;
#X connect 28 1 30 0;
#X connect 28 2 31 0;
#X connect 28 3 32 0;
#X connect 29 0 63 0;
#X connect 30 0 51 1;
#X connect 33 0 34 0;
#X connect 33 1 35 0;
#X connect 33 2 36 0;
#X connect 33 3 37 0;
#X connect 34 0 64 0;
#X connect 35 0 53 1;
#X connect 38 0 39 0;
#X connect 38 1 40 0;
#X connect 38 2 41 0;
#X connect 38 3 42 0;
#X connect 39 0 65 0;
#X connect 40 0 55 1;
#X connect 43 0 44 0;
#X connect 43 1 45 0;
#X connect 43 2 46 0;
#X connect 43 3 47 0;
#X connect 44 0 66 0;
#X connect 45 0 57 1;
#X connect 48 0 49 0;
#X connect 49 0 58 0;
#X connect 50 0 51 0;
#X connect 51 0 58 0;
#X connect 52 0 53 0;
#X connect 53 0 58 0;
#X connect 54 0 55 0;
#X connect 55 0 58 0;
#X connect 56 0 57 0;
#X connect 57 0 58 0;
#X connect 58 0 60 0;
#X connect 61 0 59 0;
#X connect 61 0 59 1;
#X connect 62 0 48 0;
#X connect 63 0 50 0;
#X connect 64 0 52 0;
#X connect 65 0 54 0;
#X connect 66 0 56 0;
#X connect 67 0 66 1;
#X connect 67 0 65 1;
#X connect 67 0 64 1;
#X connect 67 0 63 1;
#X connect 67 0 62 1;
