#N canvas 105 83 684 592 16;
#X obj 104 283 osc~;
#X obj 104 467 *~;
#X obj 131 435 line~;
#X text 15 4 //voice;
#X text 250 511 //many-to-one audio 'send' object;
#X obj 104 96 osc~;
#X text 236 64 //program oscillator;
#X obj 104 252 +~;
#X obj 104 182 *~;
#X obj 104 64 r \$1-program;
#X text 218 149 //peak ƒ deviation (modulation index);
#X obj 131 150 r \$1-pfd;
#X text 203 190 //carrier oscillator;
#X obj 131 220 r \$1-carrier;
#X obj 131 375 r \$1-ahr;
#X text 231 374 //list: (attack \, hold \, release);
#N canvas 869 452 473 432 ahr 0;
#X obj 50 313 pack;
#X obj 50 68 unpack f f f;
#X obj 108 149 delay;
#X obj 50 102 t b f b f;
#X obj 108 183 delay;
#X obj 155 271 f;
#X obj 108 217 t b b;
#X msg 94 271 0;
#X obj 50 24 inlet;
#X text 173 183 delay (hold);
#X text 173 150 delay (attack);
#X text 150 101 (f) is attack time;
#X text 193 270 release time;
#X msg 50 271 1;
#X obj 50 346 outlet;
#X obj 274 315 loadbang;
#X msg 274 344 0;
#X connect 0 0 14 0;
#X connect 1 0 3 0;
#X connect 1 1 4 1;
#X connect 1 2 5 1;
#X connect 2 0 4 0;
#X connect 3 0 13 0;
#X connect 3 1 0 1;
#X connect 3 2 2 0;
#X connect 3 3 2 1;
#X connect 4 0 6 0;
#X connect 5 0 0 1;
#X connect 6 0 7 0;
#X connect 6 1 5 0;
#X connect 7 0 0 0;
#X connect 8 0 1 0;
#X connect 13 0 0 0;
#X connect 15 0 16 0;
#X connect 16 0 14 0;
#X restore 131 405 pd ahr;
#X obj 104 512 throw~ fmVoice;
#X connect 0 0 1 0;
#X connect 1 0 17 0;
#X connect 2 0 1 1;
#X connect 5 0 8 0;
#X connect 7 0 0 0;
#X connect 8 0 7 0;
#X connect 9 0 5 0;
#X connect 11 0 8 1;
#X connect 13 0 7 1;
#X connect 14 0 16 0;
#X connect 16 0 2 0;
