#N canvas 98 60 719 537 16;
#X obj 158 95 notein;
#X obj 332 81 ctlin;
#X floatatom 390 116 5 0 0 0 - - -;
#X floatatom 365 141 5 0 0 0 - - -;
#X floatatom 336 169 5 0 0 0 - - -;
#X obj 238 253 pink~;
#X obj 336 285 line~;
#X msg 336 256 \$1 10;
#X obj 336 227 / 127;
#X obj 309 326 *~;
#X obj 312 371 output~;
#X obj 441 293 pack f f;
#X obj 441 265 f;
#X obj 441 236 t b f;
#X floatatom 437 421 5 0 0 0 - - -;
#X floatatom 497 422 5 0 0 0 - - -;
#X obj 460 332 s midiCtl;
#X text 520 384 // (index \, value);
#X obj 441 387 route 1 80;
#X floatatom 558 419 5 0 0 0 - - -;
#X text 451 116 midi channel;
#X text 423 141 controller #;
#X text 393 171 value;
#X connect 1 0 4 0;
#X connect 1 1 3 0;
#X connect 1 2 2 0;
#X connect 3 0 12 1;
#X connect 4 0 13 0;
#X connect 5 0 9 0;
#X connect 6 0 9 1;
#X connect 7 0 6 0;
#X connect 8 0 7 0;
#X connect 9 0 10 0;
#X connect 9 0 10 1;
#X connect 11 0 18 0;
#X connect 12 0 11 0;
#X connect 13 0 12 0;
#X connect 13 1 11 1;
#X connect 14 0 8 0;
#X connect 18 0 14 0;
#X connect 18 1 15 0;
#X connect 18 2 19 0;
