#N canvas 0 43 1167 596 16;
#X obj 78 53 notein;
#X floatatom 153 95 5 0 0 0 - - -;
#X floatatom 111 124 5 0 0 0 - - -;
#X floatatom 78 156 5 0 0 0 - - -;
#X obj 563 348 mtof;
#X floatatom 563 385 5 0 0 0 - - -;
#X obj 563 415 osc~;
#X obj 563 451 output~;
#X obj 78 199 stripnote;
#X text 210 96 midi channel;
#X text 171 124 on velocity;
#X text 139 156 note number;
#X floatatom 78 232 5 0 0 0 - - -;
#X floatatom 165 232 5 0 0 0 - - -;
#N canvas 0 22 450 278 (subpatch) 0;
#X array noteArray 10 float 2;
#X coords 0 127 10 0 200 140 1 0 0;
#X restore 339 58 graph;
#X obj 78 434 tabwrite noteArray;
#X obj 255 373 int;
#X obj 295 373 + 1;
#X obj 335 373 % 10;
#X obj 255 351 bng 15 250 50 0 empty empty empty 17 7 0 10 -262144
-1 -1;
#X floatatom 255 401 5 0 0 0 - - -;
#X obj 78 321 t f b;
#X obj 563 254 metro 200;
#X obj 563 231 tgl 15 0 empty empty empty 17 7 0 10 -262144 -1 -1 1
1;
#X obj 563 286 random 10;
#X obj 563 317 tabread noteArray;
#N canvas 0 22 450 278 (subpatch) 0;
#X array rhythmArray 10 float 2;
#X coords 0 2000 9 0 200 140 1 0 0;
#X restore 558 58 graph;
#X obj 405 280 timer;
#X floatatom 405 345 7 0 0 0 - - -;
#X obj 452 250 bng 15 250 50 0 empty empty empty 17 7 0 10 -262144
-1 -1;
#X obj 405 250 bng 15 250 50 0 empty empty empty 17 7 0 10 -262144
-1 -1;
#X obj 405 199 bng 15 250 50 0 empty empty empty 17 7 0 10 -262144
-1 -1;
#X obj 405 219 t b b;
#X obj 339 440 int;
#X obj 379 440 + 1;
#X obj 419 440 % 10;
#X obj 339 418 bng 15 250 50 0 empty empty empty 17 7 0 10 -262144
-1 -1;
#X floatatom 339 468 5 0 0 0 - - -;
#X obj 162 388 t f b;
#X obj 162 501 tabwrite rhythmArray;
#X obj 742 317 tabread rhythmArray;
#X floatatom 742 349 5 0 0 0 - - -;
#X obj 739 393;
#X floatatom 740 288 5 0 0 0 - - -;
#X obj 405 310 moses 2000;
#X floatatom 495 344 5 0 0 0 - - -;
#X obj 239 236 adc~;
#X obj 239 265 sigmund~ notes;
#X floatatom 239 293 5 0 0 0 - - -;
#X connect 0 0 3 0;
#X connect 0 1 2 0;
#X connect 0 2 1 0;
#X connect 2 0 8 1;
#X connect 3 0 8 0;
#X connect 4 0 5 0;
#X connect 5 0 6 0;
#X connect 6 0 7 0;
#X connect 6 0 7 1;
#X connect 8 0 12 0;
#X connect 8 1 13 0;
#X connect 16 0 17 0;
#X connect 16 0 20 0;
#X connect 17 0 18 0;
#X connect 18 0 16 1;
#X connect 19 0 16 0;
#X connect 20 0 15 1;
#X connect 21 0 15 0;
#X connect 21 1 19 0;
#X connect 22 0 24 0;
#X connect 23 0 22 0;
#X connect 24 0 25 0;
#X connect 24 0 40 0;
#X connect 25 0 4 0;
#X connect 27 0 44 0;
#X connect 28 0 38 0;
#X connect 29 0 27 1;
#X connect 30 0 27 0;
#X connect 31 0 32 0;
#X connect 32 0 30 0;
#X connect 32 1 29 0;
#X connect 33 0 34 0;
#X connect 33 0 37 0;
#X connect 34 0 35 0;
#X connect 35 0 33 1;
#X connect 36 0 33 0;
#X connect 37 0 39 1;
#X connect 38 0 39 0;
#X connect 38 1 36 0;
#X connect 40 0 22 1;
#X connect 40 0 41 0;
#X connect 43 0 40 0;
#X connect 44 0 28 0;
#X connect 44 1 45 0;
#X connect 46 0 47 0;
#X connect 47 0 48 0;
#X connect 48 0 21 0;
#X connect 48 0 31 0;
