#N canvas 251 103 738 467 10;
#N canvas 0 22 450 278 (subpatch) 0;
#X array notes 10 float 3;
#A 0 34.0687 44.4616 34.2608 34.4553 44.5507 34.6029 34.007 34.1921
44.5667 45.959;
#X coords 0 127 10 0 200 140 1 0 0;
#X restore 474 92 graph;
#X obj 69 169 random 10;
#X obj 69 192 tabread notes;
#X obj 69 216 t f b;
#X obj 96 240 random 127;
#X obj 96 262 + 1;
#X obj 69 293 pack f f;
#X obj 280 224 notein;
#X obj 280 247 stripnote;
#X obj 281 298 t f b;
#X obj 308 323 int;
#X obj 338 323 + 1;
#X obj 368 323 % 10;
#X obj 281 380 tabwrite notes;
#X obj 230 63 adc~;
#X obj 231 140 vu 15 120 empty empty -1 -8 0 10 -66577 -1 1 0;
#X obj 230 116 - 100;
#X obj 230 95 env~ 128;
#X floatatom 408 281 5 0 0 0 - - -;
#X obj 69 123 tgl 15 0 empty empty empty 17 7 0 10 -262144 -1 -1 1
1;
#X obj 69 337 mtof;
#X obj 65 365 osc~;
#X obj 66 400 output~;
#X obj 69 145 metro 180;
#X obj 358 140 sigmund~ notes;
#X floatatom 356 169 5 0 0 0 - - -;
#X obj 355 196 phasor~;
#X obj 415 220 mtof;
#X obj 369 239 *~ 0.1;
#X connect 1 0 2 0;
#X connect 2 0 3 0;
#X connect 3 0 20 0;
#X connect 3 1 4 0;
#X connect 4 0 5 0;
#X connect 5 0 6 1;
#X connect 7 0 8 0;
#X connect 7 1 8 1;
#X connect 8 0 9 0;
#X connect 9 0 13 0;
#X connect 9 1 10 0;
#X connect 10 0 11 0;
#X connect 10 0 13 1;
#X connect 11 0 12 0;
#X connect 12 0 10 1;
#X connect 14 0 17 0;
#X connect 14 0 24 0;
#X connect 16 0 15 0;
#X connect 17 0 16 0;
#X connect 19 0 23 0;
#X connect 20 0 21 0;
#X connect 21 0 22 0;
#X connect 23 0 1 0;
#X connect 24 0 25 0;
#X connect 24 0 9 0;
#X connect 25 0 27 0;
#X connect 26 0 28 0;
#X connect 27 0 26 0;
