#N canvas 220 71 886 449 16;
#X obj 250 102 t b b b;
#X obj 250 81 bng 15 250 50 0 empty empty empty 17 7 0 10 -262144 -1
-1;
#X obj 317 134 \$1;
#X obj 260 378 metro;
#X obj 307 342 line;
#X floatatom 334 379 7 0 0 0 - - -;
#X obj 426 107 \$1;
#X floatatom 426 152 5 0 0 0 - - -;
#X obj 428 63 bng 15 250 50 0 empty empty empty 17 7 0 10 -262144 -1
-1;
#X obj 283 166 random 1000;
#X obj 283 204 + 1500;
#X floatatom 283 231 5 0 0 0 - - -;
#X floatatom 352 232 5 0 0 0 - - -;
#X obj 352 204 + 60000;
#X obj 263 264 pack f f f;
#X obj 159 166 delay 20000;
#X obj 159 193 \$1;
#X msg 263 295 \$1 \, \$2 \$3;
#X floatatom 504 396 5 0 0 0 - - -;
#X floatatom 504 329 5 0 0 0 - - -;
#X obj 504 362 pow 0.5;
#X obj 513 199 expr 1 / $f1;
#X floatatom 513 229 5 0 0 0 - - -;
#X floatatom 513 167 5 0 0 0 - - -;
#X floatatom 674 164 5 0 0 0 - - -;
#X obj 674 195 t b f;
#X msg 674 225 1;
#X obj 674 257 /;
#X floatatom 674 289 5 0 0 0 - - -;
#X connect 0 0 15 0;
#X connect 0 1 9 0;
#X connect 0 2 2 0;
#X connect 1 0 0 0;
#X connect 2 0 4 0;
#X connect 4 0 3 1;
#X connect 4 0 5 0;
#X connect 6 0 7 0;
#X connect 8 0 6 0;
#X connect 9 0 10 0;
#X connect 9 0 13 0;
#X connect 10 0 11 0;
#X connect 11 0 14 1;
#X connect 12 0 14 2;
#X connect 13 0 12 0;
#X connect 14 0 17 0;
#X connect 15 0 16 0;
#X connect 16 0 14 0;
#X connect 17 0 4 0;
#X connect 19 0 20 0;
#X connect 20 0 18 0;
#X connect 21 0 22 0;
#X connect 23 0 21 0;
#X connect 24 0 25 0;
#X connect 25 0 26 0;
#X connect 25 1 27 1;
#X connect 26 0 27 0;
#X connect 27 0 28 0;
