#N canvas 0 22 450 300 10;
#X obj 104 -1 inlet~;
#X obj 104 46 snapshot~;
#X floatatom 104 104 5 0 0 0 - - -;
#X obj 183 12 metro 100;
#X obj 183 -10 loadbang;
#X connect 0 0 1 0;
#X connect 1 0 2 0;
#X connect 3 0 1 0;
#X connect 4 0 3 0;
#X coords 0 -1 1 1 40 24 1 100 100;
