#N canvas 277 117 822 516 10;
#X obj 339 221 int;
#X obj 369 221 + 1;
#X text 435 220 // set to number of voices;
#X obj 339 199 bng 15 250 50 0 empty empty empty 17 7 0 10 -262144
-1 -1;
#X obj 339 269 s currentVoice;
#X obj 339 175 r nextVoice;
#X floatatom 339 248 5 0 0 0 - - -;
#X obj 62 220 fm-synth-voice 0;
#X obj 62 240 fm-synth-voice 1;
#X obj 62 260 fm-synth-voice 2;
#X obj 62 280 fm-synth-voice 3;
#X obj 62 300 fm-synth-voice 4;
#X obj 62 320 fm-synth-voice 5;
#X obj 62 340 fm-synth-voice 6;
#X obj 62 360 fm-synth-voice 7;
#X obj 62 390 catch~ fmVoice;
#X obj 62 422 *~ 0.1;
#X obj 62 445 dac~;
#N canvas 353 217 914 602 state-one 1;
#X obj 55 523 s;
#X obj 70 478 r currentVoice;
#X floatatom 282 384 5 0 0 0 - - -;
#X obj 282 452 s;
#X obj 297 407 r currentVoice;
#X floatatom 413 450 5 0 0 0 - - -;
#X obj 413 518 s;
#X obj 428 473 r currentVoice;
#X floatatom 542 385 5 0 0 0 - - -;
#X obj 542 453 s;
#X msg 557 428 symbol \$1-program;
#X obj 557 408 r currentVoice;
#X obj 130 233 t b b;
#X obj 157 256 s nextVoice;
#X obj 130 214 bng 15 250 50 0 empty empty empty 17 7 0 10 -262144
-1 -1;
#X msg 70 498 symbol \$1-ahr;
#X obj 55 347 t b b b;
#X obj 55 427 pack f f f;
#X obj 195 397 + 3;
#X obj 125 373 random 30;
#X obj 125 397 + 3;
#X obj 55 397 + 3;
#X obj 130 283 t b b b b;
#X msg 428 493 symbol \$1-carrier;
#X obj 413 383 *;
#X msg 297 427 symbol \$1-pfd;
#X obj 130 128 metro 1000;
#X obj 130 107 tgl 15 0 empty empty empty 17 7 0 10 -262144 -1 -1 1
1;
#X obj 195 373 random 300;
#X obj 149 196 + 10;
#X obj 282 339 random 400;
#X obj 282 360 + 400;
#X obj 413 339 random 100;
#X obj 413 360 / 100;
#X obj 542 339 random 400;
#X obj 542 360 + 400;
#X obj 55 373 random 3999;
#X obj 149 174 random 1000;
#X obj 413 406 * 400;
#X obj 413 428 + 200;
#X obj 130 19 r state;
#X msg 130 66 1;
#X msg 175 66 0;
#X obj 130 44 select 1;
#N canvas 426 276 450 300 selectState 1;
#X obj 27 25 inlet;
#X obj 38 92 select 0;
#X obj 27 123 random 100;
#X obj 27 151 moses 20;
#X obj 27 249 s state;
#X obj 72 173 moses 90;
#X msg 117 195 2;
#X obj 38 66 random 20;
#X msg 27 176 1;
#X msg 72 195 0;
#X obj 141 86 bng 15 250 50 0 empty empty empty 17 7 0 10 -262144 -1
-1;
#X connect 0 0 10 0;
#X connect 2 0 3 0;
#X connect 3 0 8 0;
#X connect 3 1 5 0;
#X connect 5 0 9 0;
#X connect 5 1 6 0;
#X connect 6 0 4 0;
#X connect 7 0 1 0;
#X connect 8 0 4 0;
#X connect 9 0 4 0;
#X connect 10 0 2 0;
#X restore 263 184 pd selectState;
#X obj 130 151 t b b b;
#X obj 187 460 unpack f f f;
#X obj 236 492 +;
#X obj 200 514 +;
#X obj 198 538 t b f;
#X obj 198 566 pipe;
#X floatatom 277 499 5 0 0 0 - - -;
#X obj 277 517 pipe 500;
#X floatatom 277 538 5 0 0 0 - - -;
#X obj 263 159 spigot;
#X obj 357 103 spigot;
#X floatatom 357 129 5 0 0 0 - - -;
#X floatatom 357 74 5 0 0 0 - - -;
#X obj 396 76 tgl 15 0 empty empty empty 17 7 0 10 -262144 -1 -1 0
1;
#X connect 1 0 15 0;
#X connect 2 0 3 0;
#X connect 4 0 25 0;
#X connect 5 0 6 0;
#X connect 7 0 23 0;
#X connect 8 0 9 0;
#X connect 10 0 9 1;
#X connect 11 0 10 0;
#X connect 12 0 22 0;
#X connect 12 1 13 0;
#X connect 14 0 12 0;
#X connect 15 0 0 1;
#X connect 16 0 36 0;
#X connect 16 1 19 0;
#X connect 16 2 28 0;
#X connect 17 0 0 0;
#X connect 17 0 46 0;
#X connect 18 0 17 2;
#X connect 19 0 20 0;
#X connect 20 0 17 1;
#X connect 21 0 17 0;
#X connect 22 0 16 0;
#X connect 22 1 30 0;
#X connect 22 2 32 0;
#X connect 22 3 34 0;
#X connect 23 0 6 1;
#X connect 24 0 38 0;
#X connect 25 0 3 1;
#X connect 26 0 45 0;
#X connect 27 0 26 0;
#X connect 27 0 54 1;
#X connect 28 0 18 0;
#X connect 29 0 26 1;
#X connect 30 0 31 0;
#X connect 31 0 2 0;
#X connect 32 0 33 0;
#X connect 33 0 24 1;
#X connect 33 0 24 0;
#X connect 34 0 35 0;
#X connect 35 0 8 0;
#X connect 36 0 21 0;
#X connect 37 0 29 0;
#X connect 38 0 39 0;
#X connect 39 0 5 0;
#X connect 40 0 43 0;
#X connect 41 0 27 0;
#X connect 42 0 27 0;
#X connect 43 0 41 0;
#X connect 43 1 42 0;
#X connect 45 0 14 0;
#X connect 45 1 37 0;
#X connect 46 0 48 0;
#X connect 46 1 47 0;
#X connect 46 2 47 1;
#X connect 47 0 48 1;
#X connect 48 0 49 0;
#X connect 49 0 50 0;
#X connect 49 1 50 1;
#X connect 50 0 54 0;
#X connect 51 0 52 0;
#X connect 52 0 53 0;
#X connect 54 0 44 0;
#X connect 55 0 56 0;
#X connect 57 0 55 0;
#X connect 58 0 55 1;
#X restore 63 115 pd state-one;
#N canvas 25 187 914 602 state-zero 0;
#X obj 55 523 s;
#X obj 70 478 r currentVoice;
#X floatatom 282 384 5 0 0 0 - - -;
#X obj 282 452 s;
#X obj 297 407 r currentVoice;
#X floatatom 413 450 5 0 0 0 - - -;
#X obj 413 518 s;
#X obj 428 473 r currentVoice;
#X floatatom 542 385 5 0 0 0 - - -;
#X obj 542 453 s;
#X msg 557 428 symbol \$1-program;
#X obj 557 408 r currentVoice;
#X obj 130 233 t b b;
#X obj 157 256 s nextVoice;
#X obj 130 214 bng 15 250 50 0 empty empty empty 17 7 0 10 -262144
-1 -1;
#X msg 70 498 symbol \$1-ahr;
#X obj 55 347 t b b b;
#X obj 55 427 pack f f f;
#X obj 195 397 + 3;
#X obj 125 373 random 30;
#X obj 125 397 + 3;
#X obj 55 397 + 3;
#X obj 130 283 t b b b b;
#X obj 282 339 random 4000;
#X obj 282 360 + 4000;
#X obj 542 339 random 4000;
#X obj 542 360 + 4000;
#X obj 413 339 random 1000;
#X msg 428 493 symbol \$1-carrier;
#X obj 413 360 / 1000;
#X obj 413 383 *;
#X msg 297 427 symbol \$1-pfd;
#X obj 55 373 random 3;
#X obj 130 128 metro 1000;
#X obj 157 196 + 10;
#X obj 157 174 random 100;
#X obj 130 107 tgl 15 0 empty empty empty 17 7 0 10 -262144 -1 -1 0
1;
#X obj 195 373 random 30;
#X obj 413 428 + 2000;
#X obj 413 406 * 4000;
#X obj 130 14 r state;
#X obj 130 39 select 0;
#X msg 130 61 1;
#X msg 175 61 0;
#X obj 130 151 t b b b;
#N canvas 426 276 450 300 selectState 1;
#X obj 27 25 inlet;
#X obj 46 63 random 40;
#X obj 46 89 select 0;
#X obj 27 123 random 100;
#X obj 27 151 moses 20;
#X msg 27 176 0;
#X obj 27 249 s state;
#X obj 72 173 moses 90;
#X msg 72 195 1;
#X msg 117 195 2;
#X connect 0 0 3 0;
#X connect 1 0 2 0;
#X connect 3 0 4 0;
#X connect 4 0 5 0;
#X connect 4 1 7 0;
#X connect 5 0 6 0;
#X connect 7 0 8 0;
#X connect 7 1 9 0;
#X connect 8 0 6 0;
#X connect 9 0 6 0;
#X restore 253 174 pd selectState;
#X obj 177 450 unpack f f f;
#X obj 226 482 +;
#X obj 190 504 +;
#X obj 186 550 delay;
#X obj 188 528 t b f;
#X connect 1 0 15 0;
#X connect 2 0 3 0;
#X connect 4 0 31 0;
#X connect 5 0 6 0;
#X connect 7 0 28 0;
#X connect 8 0 9 0;
#X connect 10 0 9 1;
#X connect 11 0 10 0;
#X connect 12 0 22 0;
#X connect 12 1 13 0;
#X connect 14 0 12 0;
#X connect 15 0 0 1;
#X connect 16 0 32 0;
#X connect 16 1 19 0;
#X connect 16 2 37 0;
#X connect 17 0 0 0;
#X connect 17 0 46 0;
#X connect 18 0 17 2;
#X connect 19 0 20 0;
#X connect 20 0 17 1;
#X connect 21 0 17 0;
#X connect 22 0 16 0;
#X connect 22 1 23 0;
#X connect 22 2 27 0;
#X connect 22 3 25 0;
#X connect 23 0 24 0;
#X connect 24 0 2 0;
#X connect 25 0 26 0;
#X connect 26 0 8 0;
#X connect 27 0 29 0;
#X connect 28 0 6 1;
#X connect 29 0 30 1;
#X connect 29 0 30 0;
#X connect 30 0 39 0;
#X connect 31 0 3 1;
#X connect 32 0 21 0;
#X connect 33 0 44 0;
#X connect 34 0 33 1;
#X connect 35 0 34 0;
#X connect 36 0 33 0;
#X connect 37 0 18 0;
#X connect 38 0 5 0;
#X connect 39 0 38 0;
#X connect 40 0 41 0;
#X connect 41 0 42 0;
#X connect 41 1 43 0;
#X connect 42 0 36 0;
#X connect 43 0 36 0;
#X connect 44 0 14 0;
#X connect 44 1 35 0;
#X connect 46 0 48 0;
#X connect 46 1 47 0;
#X connect 46 2 47 1;
#X connect 47 0 48 1;
#X connect 48 0 50 0;
#X connect 49 0 45 0;
#X connect 50 0 49 0;
#X connect 50 1 49 1;
#X restore 63 94 pd state-zero;
#X obj 170 220 fm-synth-voice 8;
#X obj 170 240 fm-synth-voice 9;
#X obj 170 260 fm-synth-voice 10;
#X obj 170 280 fm-synth-voice 11;
#X obj 170 300 fm-synth-voice 12;
#X obj 170 320 fm-synth-voice 13;
#X obj 170 340 fm-synth-voice 14;
#X obj 170 360 fm-synth-voice 15;
#X obj 398 221 % 16;
#N canvas 321 174 914 602 state-two 1;
#X obj 55 523 s;
#X obj 70 478 r currentVoice;
#X floatatom 282 384 5 0 0 0 - - -;
#X obj 282 452 s;
#X obj 297 407 r currentVoice;
#X floatatom 413 450 5 0 0 0 - - -;
#X obj 413 518 s;
#X obj 428 473 r currentVoice;
#X floatatom 542 385 5 0 0 0 - - -;
#X obj 542 453 s;
#X msg 557 428 symbol \$1-program;
#X obj 557 408 r currentVoice;
#X obj 130 233 t b b;
#X obj 157 256 s nextVoice;
#X obj 130 214 bng 15 250 50 0 empty empty empty 17 7 0 10 -262144
-1 -1;
#X msg 70 498 symbol \$1-ahr;
#X obj 55 347 t b b b;
#X obj 55 427 pack f f f;
#X obj 195 397 + 3;
#X obj 125 373 random 30;
#X obj 125 397 + 3;
#X obj 55 397 + 3;
#X obj 130 283 t b b b b;
#X msg 428 493 symbol \$1-carrier;
#X obj 413 383 *;
#X msg 297 427 symbol \$1-pfd;
#X obj 130 128 metro 1000;
#X obj 130 107 tgl 15 0 empty empty empty 17 7 0 10 -262144 -1 -1 0
1;
#X obj 149 196 + 10;
#X obj 413 339 random 100;
#X obj 413 360 / 100;
#X obj 542 339 random 400;
#X obj 542 360 + 400;
#X obj 149 174 random 1000;
#X obj 413 406 * 400;
#X obj 413 428 + 200;
#X obj 55 373 random 1;
#X obj 195 373 random 3000;
#X obj 282 339 random 9400;
#X obj 282 360 + 6400;
#X obj 130 18 r state;
#X msg 130 65 1;
#X msg 175 65 0;
#X obj 130 43 select 2;
#X obj 130 150 t b b b;
#N canvas 426 276 450 300 selectState 1;
#X obj 27 25 inlet;
#X obj 45 97 select 0;
#X msg 27 176 0;
#X obj 27 249 s state;
#X obj 45 71 random 13;
#X connect 0 0 2 0;
#X connect 2 0 3 0;
#X connect 4 0 1 0;
#X restore 268 175 pd selectState;
#X obj 197 470 unpack f f f;
#X obj 246 502 +;
#X obj 210 524 +;
#X obj 206 570 delay;
#X obj 208 548 t b f;
#X connect 1 0 15 0;
#X connect 2 0 3 0;
#X connect 4 0 25 0;
#X connect 5 0 6 0;
#X connect 7 0 23 0;
#X connect 8 0 9 0;
#X connect 10 0 9 1;
#X connect 11 0 10 0;
#X connect 12 0 22 0;
#X connect 12 1 13 0;
#X connect 14 0 12 0;
#X connect 15 0 0 1;
#X connect 16 0 36 0;
#X connect 16 1 19 0;
#X connect 16 2 37 0;
#X connect 17 0 0 0;
#X connect 17 0 46 0;
#X connect 18 0 17 2;
#X connect 19 0 20 0;
#X connect 20 0 17 1;
#X connect 21 0 17 0;
#X connect 22 0 16 0;
#X connect 22 1 38 0;
#X connect 22 2 29 0;
#X connect 22 3 31 0;
#X connect 23 0 6 1;
#X connect 24 0 34 0;
#X connect 25 0 3 1;
#X connect 26 0 44 0;
#X connect 27 0 26 0;
#X connect 28 0 26 1;
#X connect 29 0 30 0;
#X connect 30 0 24 1;
#X connect 30 0 24 0;
#X connect 31 0 32 0;
#X connect 32 0 8 0;
#X connect 33 0 28 0;
#X connect 34 0 35 0;
#X connect 35 0 5 0;
#X connect 36 0 21 0;
#X connect 37 0 18 0;
#X connect 38 0 39 0;
#X connect 39 0 2 0;
#X connect 40 0 43 0;
#X connect 41 0 27 0;
#X connect 42 0 27 0;
#X connect 43 0 41 0;
#X connect 43 1 42 0;
#X connect 44 0 14 0;
#X connect 44 1 33 0;
#X connect 46 0 48 0;
#X connect 46 1 47 0;
#X connect 46 2 47 1;
#X connect 47 0 48 1;
#X connect 48 0 50 0;
#X connect 49 0 45 0;
#X connect 50 0 49 0;
#X connect 50 1 49 1;
#X restore 63 135 pd state-two;
#X obj 61 37 s state;
#X msg 61 15 0;
#X text 93 15 //get going with state 0;
#N canvas 387 319 450 300 state-three 1;
#X text 56 40 //silence;
#X restore 63 156 pd state-three;
#X connect 0 0 1 0;
#X connect 0 0 6 0;
#X connect 1 0 28 0;
#X connect 3 0 0 0;
#X connect 5 0 3 0;
#X connect 6 0 4 0;
#X connect 15 0 16 0;
#X connect 16 0 17 0;
#X connect 16 0 17 1;
#X connect 28 0 0 1;
#X connect 31 0 30 0;
