#N canvas 0 95 1366 673 16;
#X obj 69 72 noise~;
#X obj 68 420 dac~;
#X text 158 136 //simple one-pole filter;
#X obj 69 140 lop~ 120;
#X obj 69 171 lop~ 120;
#X text 158 165 //two seems to really make it work;
#X text 119 375 //if we need it \, may use makeup gain;
#X floatatom 159 95 5 0 0 0 - - -;
#X text 222 94 //inlet is frequency cutoff;
#X obj 552 156 hip~ 10000;
#X obj 652 81 hsl 256 15 220.5 22050 1 0 empty empty empty -2 -8 0
10 -260097 -1 -1 0 1;
#X floatatom 719 138 5 0 0 0 - - -;
#X obj 68 375 *~ 1;
#X text 673 168 //not that great;
#X obj 596 279 bp~ 1300 8;
#X floatatom 644 210 5 0 0 0 - - -;
#X text 705 206 //frequency cutoff;
#X floatatom 715 240 5 0 0 0 - - -;
#X text 778 236 //q;
#X connect 0 0 3 0;
#X connect 0 0 14 0;
#X connect 3 0 4 0;
#X connect 4 0 12 0;
#X connect 7 0 3 1;
#X connect 7 0 4 1;
#X connect 9 0 12 0;
#X connect 10 0 11 0;
#X connect 10 0 9 1;
#X connect 12 0 1 0;
#X connect 12 0 1 1;
#X connect 14 0 12 0;
#X connect 15 0 14 1;
#X connect 17 0 14 2;
