#N canvas 142 22 940 753 24;
#X text 52 21 //order of command execution;
#X floatatom 52 63 5 0 0 0 - - -;
#X text 116 61 can i get 100 minus this value?;
#X floatatom 52 237 5 0 0 0 - - -;
#X obj 52 190 -;
#X msg 52 143 100;
#X obj 52 95 trigger bang float;
#X text 269 93 trigger events (bang \, float \, list \, symbol) from
right to left;
#X floatatom 52 408 5 0 0 0 - - -;
#X obj 52 376 -;
#X msg 52 343 100;
#X floatatom 52 279 5 0 0 0 - - -;
#X obj 52 309 t f b;
#X text 105 375 this causes an error 'inlet: expected 'float' but got
'bang';
#X msg 147 475 sleep;
#X msg 50 476 to;
#X msg 100 476 go;
#X obj 50 449 bng 15 250 50 0 empty empty empty 17 7 0 10 -262144 -1
-1;
#X obj 50 510 print;
#X obj 50 574 t b b b;
#X msg 149 620 sleep;
#X msg 52 621 to;
#X msg 102 621 go;
#X obj 51 664 print;
#X obj 50 552 bng 15 250 50 0 empty empty empty 17 7 0 10 -262144 -1
-1;
#X text 82 441 what's the order of the output?;
#X text 116 511 unsure!;
#X text 134 574 bang outputs from right to left;
#X text 165 163 in this example \, the incoming float from the number
box is sent into the right inlet of the [- ] \, and -then- the bang
triggers the [100[ message;
#X connect 1 0 6 0;
#X connect 4 0 3 0;
#X connect 5 0 4 0;
#X connect 6 0 5 0;
#X connect 6 1 4 1;
#X connect 9 0 8 0;
#X connect 10 0 9 0;
#X connect 11 0 12 0;
#X connect 12 0 10 0;
#X connect 12 1 9 1;
#X connect 14 0 18 0;
#X connect 15 0 18 0;
#X connect 16 0 18 0;
#X connect 17 0 14 0;
#X connect 17 0 15 0;
#X connect 17 0 16 0;
#X connect 19 0 20 0;
#X connect 19 1 21 0;
#X connect 19 2 22 0;
#X connect 20 0 23 0;
#X connect 21 0 23 0;
#X connect 22 0 23 0;
#X connect 24 0 19 0;
