#N canvas 203 139 546 538 10;
#X floatatom 17 212 5 0 0 0 - - -;
#X msg 17 192 8;
#X obj 17 172 loadbang;
#X obj 17 231 s fadeOutTime;
#X obj 18 12 s theBigPlay;
#X obj 17 54 player d-adams.aif 100;
#X obj 18 -36 tgl 40 0 empty empty empty 17 7 0 10 -262130 -1 -1 0
1;
#X obj 17 305 simplePlayer d-adams.aif;
#X msg 17 283 0 44100;
#X msg 17 365 0 400;
#X obj 17 386 simplePlayer woo.aif;
#X obj 17 74 player guitar.wav 150;
#X obj 17 94 player in-the-past.aif 217;
#X obj 17 114 player woo.aif 349;
#X obj 17 134 player groupbeat22.aiff 414;
#X text 111 230 //this is a global send \, so it goes to every instance
(and every open Pd file!);
#X text 196 52 //these are 'instances' of the player.pd file in this
directory;
#X text 195 88 //we call these 'abstractions';
#X text 174 304 //here is a useful file loader / player with built-in
fading to prevent popping / clicking;
#X obj 17 328 dac~;
#X obj 17 410 dac~;
#X connect 0 0 3 0;
#X connect 1 0 0 0;
#X connect 2 0 1 0;
#X connect 6 0 4 0;
#X connect 7 0 19 0;
#X connect 7 0 19 1;
#X connect 8 0 7 0;
#X connect 9 0 10 0;
#X connect 10 0 20 0;
#X connect 10 0 20 1;
