#N canvas 65 119 993 634 16;
#X obj 63 493 *~;
#X obj 90 447 line~;
#X obj 730 67 table \$0-sampleTable;
#X obj 63 332 tabplay~ \$0-sampleTable;
#N canvas 624 127 450 300 tableLoading 0;
#X obj 37 180 soundfiler;
#X obj 37 34 loadbang;
#X obj 37 92 \$0;
#X obj 37 119 pack f s;
#X msg 37 149 read -resize data/\$2 \$1-sampleTable;
#X obj 114 92 symbol \$1;
#X obj 37 62 t b b;
#X obj 37 210 s \$0-sampleLength;
#X connect 0 0 7 0;
#X connect 1 0 6 0;
#X connect 2 0 3 0;
#X connect 3 0 4 0;
#X connect 4 0 0 0;
#X connect 5 0 3 1;
#X connect 6 0 2 0;
#X connect 6 1 5 0;
#X restore 730 99 pd tableLoading;
#X obj 63 81 inlet;
#X text 127 81 //inlet takes list of [sampleStart playLengthInSamples[
;
#X obj 63 112 unpack f f;
#X obj 160 142 t f f;
#X text 221 141 //play time in samples;
#X obj 207 233 /;
#X obj 234 202 samplerate~;
#X obj 234 174 loadbang;
#X text 250 234 //play time in seconds;
#X obj 207 263 * 1000;
#X text 277 261 //play time in ms;
#X obj 207 293 - 5;
#X text 248 291 ...minus fade out time...;
#X obj 90 383 delay;
#X msg 90 415 0 5;
#X msg 202 414 0 5;
#X obj 63 268 f;
#X obj 63 164 t b f b;
#X obj 63 196 delay 5;
#X floatatom 566 227 5 0 0 0 - - -;
#X floatatom 569 291 5 0 0 0 - - -;
#X obj 568 260 pipe 505;
#X obj 63 297 pack f f;
#X obj 63 231 t b b b;
#X msg 138 415 1 5;
#X obj 63 525 outlet~;
#X connect 0 0 30 0;
#X connect 1 0 0 1;
#X connect 3 0 0 0;
#X connect 5 0 7 0;
#X connect 7 0 22 0;
#X connect 7 1 8 0;
#X connect 8 0 27 1;
#X connect 8 1 10 0;
#X connect 10 0 14 0;
#X connect 11 0 10 1;
#X connect 12 0 11 0;
#X connect 14 0 16 0;
#X connect 16 0 18 1;
#X connect 18 0 19 0;
#X connect 19 0 1 0;
#X connect 20 0 1 0;
#X connect 21 0 27 0;
#X connect 22 0 23 0;
#X connect 22 1 21 1;
#X connect 22 2 20 0;
#X connect 23 0 28 0;
#X connect 27 0 3 0;
#X connect 28 0 21 0;
#X connect 28 1 29 0;
#X connect 28 2 18 0;
#X connect 29 0 1 0;
