#N canvas 97 134 979 660 16;
#X text 42 -1715 //waveshaper;
#N canvas 0 22 450 278 (subpatch) 0;
#X array waveshaperArray 1024 float 2;
#X coords 0 1 1024 -1 200 140 1 0 0;
#X restore 704 -1671 graph;
#X obj 492 -1152 tabwrite waveshaperArray;
#X obj 44 -1612 osc~;
#X obj 690 -1386 tabread waveshaperArray;
#X floatatom 690 -1358 5 0 0 0 - - -;
#X floatatom 690 -1414 5 0 0 0 - - -;
#X text 679 -1549 -1;
#X text 685 -1681 1;
#X text 699 -1529 0;
#X text 895 -1529 1023;
#X obj 44 -1329 *~ 512;
#X text 111 -1420 //-1 to 1;
#X text 121 -1330 //-512 to 512;
#X obj 44 -1300 +~ 512;
#X text 121 -1300 //0 1024;
#X obj 44 -1223 output~;
#X floatatom 44 -1641 5 0 0 0 - - -;
#X obj 44 -1268 tabread4~ waveshaperArray;
#N canvas 749 22 441 351 linear 0;
#X obj 38 -7 inlet;
#N canvas 800 24 432 521 counter 0;
#X obj 37 -1466 inlet;
#X obj 37 -1378 until;
#X msg 65 -1347 0;
#X obj 37 -1316 int;
#X obj 37 -1407 t f f;
#X obj 77 -1316 + 1;
#X obj 37 -1257 pipe;
#X obj 37 -1287 t f f;
#X obj 37 -1222 t f f;
#X msg 37 -1437 1024;
#X obj 37 -1126 outlet;
#X obj 107 -1126 outlet;
#X obj 37 -1189 / 512;
#X obj 37 -1159 - 1;
#X connect 0 0 9 0;
#X connect 1 0 3 0;
#X connect 2 0 3 1;
#X connect 3 0 5 0;
#X connect 3 0 7 0;
#X connect 4 0 1 0;
#X connect 4 1 2 0;
#X connect 5 0 3 1;
#X connect 6 0 8 0;
#X connect 7 0 6 0;
#X connect 7 1 6 1;
#X connect 8 0 12 0;
#X connect 8 1 11 0;
#X connect 9 0 4 0;
#X connect 12 0 13 0;
#X connect 13 0 10 0;
#X restore 38 29 pd counter;
#X obj 38 220 pack f f;
#X obj 38 251 s values;
#X connect 0 0 1 0;
#X connect 1 0 2 0;
#X connect 1 1 2 1;
#X connect 2 0 3 0;
#X restore 492 -1528 pd linear;
#X obj 492 -1549 bng 15 250 50 0 empty empty empty 17 7 0 10 -262144
-1 -1;
#X obj 492 -1213 r values;
#X obj 492 -1185 unpack f f;
#X obj 492 -1499 bng 15 250 50 0 empty empty empty 17 7 0 10 -262144
-1 -1;
#N canvas 847 267 441 351 soft-clip 0;
#X obj 38 -7 inlet;
#N canvas 800 24 432 521 counter 0;
#X obj 37 -1466 inlet;
#X obj 37 -1378 until;
#X msg 65 -1347 0;
#X obj 37 -1316 int;
#X obj 37 -1407 t f f;
#X obj 77 -1316 + 1;
#X obj 37 -1257 pipe;
#X obj 37 -1287 t f f;
#X obj 37 -1222 t f f;
#X msg 37 -1437 1024;
#X obj 37 -1126 outlet;
#X obj 107 -1126 outlet;
#X obj 37 -1189 / 512;
#X obj 37 -1159 - 1;
#X connect 0 0 9 0;
#X connect 1 0 3 0;
#X connect 2 0 3 1;
#X connect 3 0 5 0;
#X connect 3 0 7 0;
#X connect 4 0 1 0;
#X connect 4 1 2 0;
#X connect 5 0 3 1;
#X connect 6 0 8 0;
#X connect 7 0 6 0;
#X connect 7 1 6 1;
#X connect 8 0 12 0;
#X connect 8 1 11 0;
#X connect 9 0 4 0;
#X connect 12 0 13 0;
#X connect 13 0 10 0;
#X restore 38 29 pd counter;
#X obj 38 240 pack f f;
#X obj 38 271 s values;
#X obj 38 65 t f f f f;
#X obj 38 209 -;
#X obj 97 100 *;
#X obj 67 130 *;
#X obj 67 163 / 3;
#X connect 0 0 1 0;
#X connect 1 0 4 0;
#X connect 1 1 2 1;
#X connect 2 0 3 0;
#X connect 4 0 5 0;
#X connect 4 1 7 0;
#X connect 4 2 6 0;
#X connect 4 3 6 1;
#X connect 5 0 2 0;
#X connect 6 0 7 1;
#X connect 7 0 8 0;
#X connect 8 0 5 1;
#X restore 492 -1478 pd soft-clip;
#X obj 492 -1449 bng 15 250 50 0 empty empty empty 17 7 0 10 -262144
-1 -1;
#N canvas 847 267 441 351 cos 0;
#X obj 38 -7 inlet;
#N canvas 800 24 432 521 counter 0;
#X obj 37 -1466 inlet;
#X obj 37 -1378 until;
#X msg 65 -1347 0;
#X obj 37 -1316 int;
#X obj 37 -1407 t f f;
#X obj 77 -1316 + 1;
#X obj 37 -1257 pipe;
#X obj 37 -1287 t f f;
#X obj 37 -1222 t f f;
#X msg 37 -1437 1024;
#X obj 37 -1126 outlet;
#X obj 107 -1126 outlet;
#X obj 37 -1189 / 512;
#X obj 37 -1159 - 1;
#X connect 0 0 9 0;
#X connect 1 0 3 0;
#X connect 2 0 3 1;
#X connect 3 0 5 0;
#X connect 3 0 7 0;
#X connect 4 0 1 0;
#X connect 4 1 2 0;
#X connect 5 0 3 1;
#X connect 6 0 8 0;
#X connect 7 0 6 0;
#X connect 7 1 6 1;
#X connect 8 0 12 0;
#X connect 8 1 11 0;
#X connect 9 0 4 0;
#X connect 12 0 13 0;
#X connect 13 0 10 0;
#X restore 38 29 pd counter;
#X obj 38 240 pack f f;
#X obj 38 271 s values;
#X obj 38 63 * 1.5707;
#X obj 38 95 - 1.5707;
#X obj 38 126 cos;
#X connect 0 0 1 0;
#X connect 1 0 4 0;
#X connect 1 1 2 1;
#X connect 2 0 3 0;
#X connect 4 0 5 0;
#X connect 5 0 6 0;
#X connect 6 0 2 0;
#X restore 492 -1428 pd cos;
#X obj 492 -1399 bng 15 250 50 0 empty empty empty 17 7 0 10 -262144
-1 -1;
#N canvas 847 267 441 351 sin2 0;
#X obj 38 -7 inlet;
#N canvas 800 24 432 521 counter 0;
#X obj 37 -1466 inlet;
#X obj 37 -1378 until;
#X msg 65 -1347 0;
#X obj 37 -1316 int;
#X obj 37 -1407 t f f;
#X obj 77 -1316 + 1;
#X obj 37 -1257 pipe;
#X obj 37 -1287 t f f;
#X obj 37 -1222 t f f;
#X msg 37 -1437 1024;
#X obj 37 -1126 outlet;
#X obj 107 -1126 outlet;
#X obj 37 -1189 / 512;
#X obj 37 -1159 - 1;
#X connect 0 0 9 0;
#X connect 1 0 3 0;
#X connect 2 0 3 1;
#X connect 3 0 5 0;
#X connect 3 0 7 0;
#X connect 4 0 1 0;
#X connect 4 1 2 0;
#X connect 5 0 3 1;
#X connect 6 0 8 0;
#X connect 7 0 6 0;
#X connect 7 1 6 1;
#X connect 8 0 12 0;
#X connect 8 1 11 0;
#X connect 9 0 4 0;
#X connect 12 0 13 0;
#X connect 13 0 10 0;
#X restore 38 29 pd counter;
#X obj 38 240 pack f f;
#X obj 38 271 s values;
#X obj 38 113 * 3.14159;
#X obj 38 145 - 3.14159;
#X obj 38 176 sin;
#X obj 37 74 * 6;
#X connect 0 0 1 0;
#X connect 1 0 7 0;
#X connect 1 1 2 1;
#X connect 2 0 3 0;
#X connect 4 0 5 0;
#X connect 5 0 6 0;
#X connect 6 0 2 0;
#X connect 7 0 4 0;
#X restore 492 -1378 pd sin2;
#X obj 249 -1546 osc~;
#X floatatom 249 -1575 5 0 0 0 - - -;
#X obj 249 -1514 *~ 0.45;
#X obj 71 -1439 line~;
#X msg 118 -1500 0 3000;
#X obj 118 -1528 delay 5;
#X obj 71 -1557 t b b;
#X obj 71 -1578 bng 15 250 50 0 empty empty empty 17 7 0 10 -262144
-1 -1;
#X obj 44 -1411 *~;
#X obj 492 -1349 bng 15 250 50 0 empty empty empty 17 7 0 10 -262144
-1 -1;
#N canvas 697 71 441 351 decimate 0;
#X obj 38 -7 inlet;
#N canvas 800 24 432 521 counter 0;
#X obj 37 -1466 inlet;
#X obj 37 -1378 until;
#X msg 65 -1347 0;
#X obj 37 -1316 int;
#X obj 37 -1407 t f f;
#X obj 77 -1316 + 1;
#X obj 37 -1257 pipe;
#X obj 37 -1287 t f f;
#X obj 37 -1222 t f f;
#X msg 37 -1437 1024;
#X obj 37 -1126 outlet;
#X obj 107 -1126 outlet;
#X obj 37 -1189 / 512;
#X obj 37 -1159 - 1;
#X connect 0 0 9 0;
#X connect 1 0 3 0;
#X connect 2 0 3 1;
#X connect 3 0 5 0;
#X connect 3 0 7 0;
#X connect 4 0 1 0;
#X connect 4 1 2 0;
#X connect 5 0 3 1;
#X connect 6 0 8 0;
#X connect 7 0 6 0;
#X connect 7 1 6 1;
#X connect 8 0 12 0;
#X connect 8 1 11 0;
#X connect 9 0 4 0;
#X connect 12 0 13 0;
#X connect 13 0 10 0;
#X restore 38 29 pd counter;
#X obj 38 240 pack f f;
#X obj 38 271 s values;
#X obj 38 86 * 9;
#X obj 38 116 int;
#X obj 38 146 / 9;
#X connect 0 0 1 0;
#X connect 1 0 4 0;
#X connect 1 1 2 1;
#X connect 2 0 3 0;
#X connect 4 0 5 0;
#X connect 5 0 6 0;
#X connect 6 0 2 0;
#X restore 492 -1328 pd decimate;
#X msg 151 -1437 \$1 1;
#X floatatom 151 -1463 5 0 1 0 - - -;
#X obj 492 -1299 bng 15 250 50 0 empty empty empty 17 7 0 10 -262144
-1 -1;
#N canvas 847 267 441 351 pow3 0;
#X obj 38 -7 inlet;
#N canvas 800 24 432 521 counter 0;
#X obj 37 -1466 inlet;
#X obj 37 -1378 until;
#X msg 65 -1347 0;
#X obj 37 -1316 int;
#X obj 37 -1407 t f f;
#X obj 77 -1316 + 1;
#X obj 37 -1257 pipe;
#X obj 37 -1287 t f f;
#X obj 37 -1222 t f f;
#X msg 37 -1437 1024;
#X obj 37 -1126 outlet;
#X obj 107 -1126 outlet;
#X obj 37 -1189 / 512;
#X obj 37 -1159 - 1;
#X connect 0 0 9 0;
#X connect 1 0 3 0;
#X connect 2 0 3 1;
#X connect 3 0 5 0;
#X connect 3 0 7 0;
#X connect 4 0 1 0;
#X connect 4 1 2 0;
#X connect 5 0 3 1;
#X connect 6 0 8 0;
#X connect 7 0 6 0;
#X connect 7 1 6 1;
#X connect 8 0 12 0;
#X connect 8 1 11 0;
#X connect 9 0 4 0;
#X connect 12 0 13 0;
#X connect 13 0 10 0;
#X restore 38 29 pd counter;
#X obj 38 240 pack f f;
#X obj 38 271 s values;
#X obj 81 125 *;
#X obj 38 91 t f f f;
#X obj 51 155 *;
#X connect 0 0 1 0;
#X connect 1 0 5 0;
#X connect 1 1 2 1;
#X connect 2 0 3 0;
#X connect 4 0 6 1;
#X connect 5 0 6 0;
#X connect 5 1 4 0;
#X connect 5 2 4 1;
#X connect 6 0 2 0;
#X restore 492 -1278 pd pow3;
#X msg 71 -1470 1 5;
#X obj 247 -1420 tabplay~ array1;
#X obj 247 -1447 bng 15 250 50 0 empty empty empty 17 7 0 10 -262144
-1 -1;
#X msg 267 -1447 stop;
#X obj 493 -1601 bng 15 250 50 0 empty empty empty 17 7 0 10 -262144
-1 -1;
#N canvas 749 22 441 351 fuzzy 0;
#X obj 38 -7 inlet;
#N canvas 800 24 432 521 counter 0;
#X obj 37 -1466 inlet;
#X obj 37 -1378 until;
#X msg 65 -1347 0;
#X obj 37 -1316 int;
#X obj 37 -1407 t f f;
#X obj 77 -1316 + 1;
#X obj 37 -1257 pipe;
#X obj 37 -1287 t f f;
#X obj 37 -1222 t f f;
#X msg 37 -1437 1024;
#X obj 37 -1126 outlet;
#X obj 107 -1126 outlet;
#X obj 37 -1189 / 512;
#X obj 37 -1159 - 1;
#X connect 0 0 9 0;
#X connect 1 0 3 0;
#X connect 2 0 3 1;
#X connect 3 0 5 0;
#X connect 3 0 7 0;
#X connect 4 0 1 0;
#X connect 4 1 2 0;
#X connect 5 0 3 1;
#X connect 6 0 8 0;
#X connect 7 0 6 0;
#X connect 7 1 6 1;
#X connect 8 0 12 0;
#X connect 8 1 11 0;
#X connect 9 0 4 0;
#X connect 12 0 13 0;
#X connect 13 0 10 0;
#X restore 38 29 pd counter;
#X obj 38 270 pack f f;
#X obj 38 301 s values;
#X obj 105 99 random 1000;
#X obj 38 217 +;
#X obj 105 126 / 4000;
#X obj 38 59 t f f b;
#X obj 104 157 - 0.125;
#X obj 65 189 *;
#X connect 0 0 1 0;
#X connect 1 0 7 0;
#X connect 1 1 2 1;
#X connect 2 0 3 0;
#X connect 4 0 6 0;
#X connect 5 0 2 0;
#X connect 6 0 8 0;
#X connect 7 0 5 0;
#X connect 7 1 9 0;
#X connect 7 2 4 0;
#X connect 8 0 9 1;
#X connect 9 0 5 1;
#X restore 493 -1580 pd fuzzy;
#X obj 493 -1651 bng 15 250 50 0 empty empty empty 17 7 0 10 -262144
-1 -1;
#N canvas 749 22 441 351 random 0;
#X obj 38 -7 inlet;
#N canvas 800 24 432 521 counter 0;
#X obj 37 -1466 inlet;
#X obj 37 -1378 until;
#X msg 65 -1347 0;
#X obj 37 -1316 int;
#X obj 37 -1407 t f f;
#X obj 77 -1316 + 1;
#X obj 37 -1257 pipe;
#X obj 37 -1287 t f f;
#X obj 37 -1222 t f f;
#X msg 37 -1437 1024;
#X obj 37 -1126 outlet;
#X obj 107 -1126 outlet;
#X obj 37 -1189 / 512;
#X obj 37 -1159 - 1;
#X connect 0 0 9 0;
#X connect 1 0 3 0;
#X connect 2 0 3 1;
#X connect 3 0 5 0;
#X connect 3 0 7 0;
#X connect 4 0 1 0;
#X connect 4 1 2 0;
#X connect 5 0 3 1;
#X connect 6 0 8 0;
#X connect 7 0 6 0;
#X connect 7 1 6 1;
#X connect 8 0 12 0;
#X connect 8 1 11 0;
#X connect 9 0 4 0;
#X connect 12 0 13 0;
#X connect 13 0 10 0;
#X restore 38 29 pd counter;
#X obj 38 220 pack f f;
#X obj 38 251 s values;
#X obj 70 99 random 1000;
#X obj 67 75 bng 15 250 50 0 empty empty empty 17 7 0 10 -262144 -1
-1;
#X obj 70 126 / 500;
#X obj 70 153 - 1;
#X connect 0 0 1 0;
#X connect 1 0 5 0;
#X connect 1 1 2 1;
#X connect 2 0 3 0;
#X connect 4 0 6 0;
#X connect 5 0 4 0;
#X connect 6 0 7 0;
#X connect 7 0 2 0;
#X restore 493 -1630 pd random;
#X text 60 -1383 //scale to the range of the number of indexes in our
waveshaper array;
#X text 490 -1677 //waveshape functions:;
#X text 489 -1240 //catch and write values to the waveshaperArray;
#X text 44 -1696 //table-lookup using an audio signal;
#N canvas 440 22 720 404 doug 0;
#X obj 82 273 soundfiler;
#N canvas 0 22 450 278 (subpatch) 0;
#X array \$0-array 393186 float 2;
#X coords 0 1 393186 -1 200 140 1 0 0;
#X restore 396 187 graph;
#X obj 82 132 openpanel;
#X obj 82 100 bng 15 250 50 0 empty empty empty 17 7 0 10 -262144 -1
-1;
#X obj 82 166 pack s \$0;
#X msg 188 132 d-adams.aif;
#X obj 188 104 loadbang;
#X msg 82 196 read -resize \$1 \$2-array;
#X connect 2 0 4 0;
#X connect 3 0 2 0;
#X connect 4 0 7 0;
#X connect 5 0 4 0;
#X connect 6 0 5 0;
#X connect 7 0 0 0;
#X restore 247 -1473 pd doug;
#X connect 3 0 37 0;
#X connect 4 0 5 0;
#X connect 6 0 4 0;
#X connect 11 0 14 0;
#X connect 14 0 18 0;
#X connect 17 0 3 0;
#X connect 18 0 16 0;
#X connect 18 0 16 1;
#X connect 20 0 19 0;
#X connect 21 0 22 0;
#X connect 22 0 2 0;
#X connect 22 1 2 1;
#X connect 23 0 24 0;
#X connect 25 0 26 0;
#X connect 27 0 28 0;
#X connect 29 0 31 0;
#X connect 30 0 29 0;
#X connect 32 0 37 1;
#X connect 33 0 32 0;
#X connect 34 0 33 0;
#X connect 35 0 44 0;
#X connect 35 1 34 0;
#X connect 36 0 35 0;
#X connect 37 0 11 0;
#X connect 38 0 39 0;
#X connect 40 0 32 0;
#X connect 41 0 40 0;
#X connect 42 0 43 0;
#X connect 44 0 32 0;
#X connect 45 0 11 0;
#X connect 46 0 45 0;
#X connect 47 0 45 0;
#X connect 48 0 49 0;
#X connect 50 0 51 0;
