#N canvas 703 295 640 266 10;
#X obj 10 76 cnv 15 240 120 empty empty empty 20 12 0 14 -233017 -66577
0;
#X obj 106 48 hsl 128 15 0 1 0 0 empty empty empty -2 -8 0 10 -262144
-1 -1 12700 1;
#X text 101 30 0;
#X text 229 30 1;
#X obj 32 203 *~;
#X obj 32 226 dac~;
#X obj 32 48 osc~ 200;
#X text 260 90 this [osc~] has its gain adjusted with a [*~] and a
slider \, but moving the slider quickly causes pops and clicks. prevent
those pops and clicks from occurring.;
#X text 260 70 pd puzzler playback-2:;
#X obj 48 175 line~;
#X obj 103 81 pack f 5;
#X connect 1 0 10 0;
#X connect 4 0 5 0;
#X connect 4 0 5 1;
#X connect 6 0 4 0;
#X connect 9 0 4 1;
#X connect 10 0 9 0;
