#N canvas 155 108 717 554 16;
#X obj 96 58 inlet;
#X text 167 56 //list (x \, y);
#X obj 96 162 unpack f f;
#X obj 193 200 - \$2;
#X text 222 238 //dy;
#X text 105 238 //dx;
#X obj 96 267 t f f;
#X obj 96 301 *;
#X obj 193 267 t f f;
#X obj 193 301 *;
#X obj 96 200 - \$1;
#X obj 96 354 +;
#X obj 96 382 sqrt;
#X obj 96 416 outlet;
#X obj 96 96 route set;
#X obj 239 144 unpack f f;
#X text 354 145 //new target;
#X connect 0 0 14 0;
#X connect 2 0 10 0;
#X connect 2 1 3 0;
#X connect 3 0 8 0;
#X connect 6 0 7 0;
#X connect 6 1 7 1;
#X connect 7 0 11 0;
#X connect 8 0 9 0;
#X connect 8 1 9 1;
#X connect 9 0 11 1;
#X connect 10 0 6 0;
#X connect 11 0 12 0;
#X connect 12 0 13 0;
#X connect 14 0 15 0;
#X connect 14 1 2 0;
#X connect 15 0 10 1;
#X connect 15 1 3 1;
