#N canvas 139 33 1014 745 16;
#X text 36 14 //point A (x \, y);
#X text 58 69 //point B (x \, y);
#X msg 58 100 1 8;
#X floatatom 283 340 5 0 0 0 - - -;
#X msg 36 45 2 2;
#X obj 280 72 cursor;
#X obj 282 42 tgl 15 0 empty empty empty 17 7 0 10 -262144 -1 -1 1
1;
#X obj 280 105 route motion;
#X obj 280 136 route x y;
#X obj 283 310 cdist 0 0;
#X obj 283 270 pack f f;
#X obj 283 242 f;
#X obj 323 168 t b f;
#X floatatom 283 481 5 0 0 0 - - -;
#X obj 393 310 cdist 1279 0;
#X obj 523 310 cdist 0 767;
#X obj 643 310 cdist 1279 767;
#X floatatom 393 340 5 0 0 0 - - -;
#X floatatom 393 481 5 0 0 0 - - -;
#X floatatom 523 340 5 0 0 0 - - -;
#X floatatom 523 481 5 0 0 0 - - -;
#X floatatom 643 340 5 0 0 0 - - -;
#X floatatom 643 481 5 0 0 0 - - -;
#X obj 283 594 line~;
#X msg 283 563 \$1 10;
#X obj 256 625 *~;
#X obj 363 594 line~;
#X msg 363 563 \$1 10;
#X obj 336 625 *~;
#X obj 433 594 line~;
#X msg 433 563 \$1 10;
#X obj 406 625 *~;
#X obj 503 594 line~;
#X msg 503 563 \$1 10;
#X obj 476 625 *~;
#X obj 256 672 dac~ 1 2 3 4;
#X obj 283 517 distance 1;
#X obj 393 517 distance 1;
#X obj 523 517 distance 1;
#X obj 643 517 distance 1;
#X obj 283 370 clip 0 700;
#X obj 283 449 / 700;
#X obj 393 370 clip 0 700;
#X obj 393 449 / 700;
#X obj 523 370 clip 0 700;
#X obj 523 449 / 700;
#X obj 643 370 clip 0 700;
#X obj 643 449 / 700;
#X obj 119 602 -~ 1;
#X obj 119 574 *~ 2;
#X obj 119 545 phasor~ 88;
#X obj 36 179 cdist 0 0;
#X floatatom 36 208 5 0 0 0 - - -;
#X msg 71 141 set 5 5;
#X text 486 117 //using a distance calculation \, we check how far
our mouse position is from a predetermined point. in this example \,
we're setting points at each of the four corners of a (1280x768) screen.
however you could set a point anywhere and generate distances calculations
for a series of points.;
#X connect 2 0 51 0;
#X connect 3 0 40 0;
#X connect 4 0 51 0;
#X connect 5 0 7 0;
#X connect 6 0 5 0;
#X connect 7 0 8 0;
#X connect 8 0 11 1;
#X connect 8 1 12 0;
#X connect 9 0 3 0;
#X connect 10 0 9 0;
#X connect 10 0 14 0;
#X connect 10 0 15 0;
#X connect 10 0 16 0;
#X connect 11 0 10 0;
#X connect 12 0 11 0;
#X connect 12 1 10 1;
#X connect 13 0 36 0;
#X connect 14 0 17 0;
#X connect 15 0 19 0;
#X connect 16 0 21 0;
#X connect 17 0 42 0;
#X connect 18 0 37 0;
#X connect 19 0 44 0;
#X connect 20 0 38 0;
#X connect 21 0 46 0;
#X connect 22 0 39 0;
#X connect 23 0 25 1;
#X connect 24 0 23 0;
#X connect 25 0 35 0;
#X connect 26 0 28 1;
#X connect 27 0 26 0;
#X connect 28 0 35 1;
#X connect 29 0 31 1;
#X connect 30 0 29 0;
#X connect 31 0 35 2;
#X connect 32 0 34 1;
#X connect 33 0 32 0;
#X connect 34 0 35 3;
#X connect 36 0 24 0;
#X connect 37 0 27 0;
#X connect 38 0 30 0;
#X connect 39 0 33 0;
#X connect 40 0 41 0;
#X connect 41 0 13 0;
#X connect 42 0 43 0;
#X connect 43 0 18 0;
#X connect 44 0 45 0;
#X connect 45 0 20 0;
#X connect 46 0 47 0;
#X connect 47 0 22 0;
#X connect 48 0 25 0;
#X connect 48 0 28 0;
#X connect 48 0 31 0;
#X connect 48 0 34 0;
#X connect 49 0 48 0;
#X connect 50 0 49 0;
#X connect 51 0 52 0;
#X connect 53 0 51 0;
