#N canvas 69 49 450 300 16;
#X obj 228 142 snapshot~;
#X obj 311 99 metro 100;
#X obj 311 45 loadbang;
#X msg 311 72 1;
#X obj 228 101 inlet~;
#X floatatom 103 103 5 0 0 0 - - -;
#X connect 0 0 5 0;
#X connect 1 0 0 0;
#X connect 2 0 3 0;
#X connect 3 0 1 0;
#X connect 4 0 0 0;
#X coords 0 -1 1 1 65 28 2 100 100;
