#N canvas 26 121 718 539 10;
#X floatatom 169 44 5 0 0 0 - - -;
#X obj 169 218 vsl 15 128 0 1 0 0 empty empty empty 0 -9 0 10 -262144
-1 -1 12544 1;
#X obj 169 379 line~;
#X msg 169 358 \$1 10;
#X obj 154 402 *~;
#X obj 32 319 phasor~ 88;
#X obj 32 341 *~ 2;
#X obj 32 363 -~ 1;
#X obj 32 385 *~ 0.2;
#X floatatom 169 127 5 0 0 0 - - -;
#X obj 190 78 r maxSpeakers;
#X obj 578 122 s maxSpeakers;
#X floatatom 578 102 5 0 0 0 - - -;
#X obj 169 181 surr 0;
#X obj 259 218 vsl 15 128 0 1 0 0 empty empty empty 0 -9 0 10 -262144
-1 -1 1988 1;
#X obj 259 379 line~;
#X msg 259 358 \$1 10;
#X obj 244 402 *~;
#X obj 339 218 vsl 15 128 0 1 0 0 empty empty empty 0 -9 0 10 -262144
-1 -1 1 1;
#X obj 339 379 line~;
#X msg 339 358 \$1 10;
#X obj 324 402 *~;
#X obj 419 218 vsl 15 128 0 1 0 0 empty empty empty 0 -9 0 10 -262144
-1 -1 1 1;
#X obj 419 379 line~;
#X msg 419 358 \$1 10;
#X obj 404 402 *~;
#X obj 499 218 vsl 15 128 0 1 0 0 empty empty empty 0 -9 0 10 -262144
-1 -1 1 1;
#X obj 499 379 line~;
#X msg 499 358 \$1 10;
#X obj 484 402 *~;
#X obj 579 218 vsl 15 128 0 1 0 0 empty empty empty 0 -9 0 10 -262144
-1 -1 1 1;
#X obj 579 379 line~;
#X msg 579 358 \$1 10;
#X obj 564 402 *~;
#X obj 154 466 dac~ 1 2 3 4 5 6;
#X obj 578 58 loadbang;
#X msg 578 80 2;
#X obj 169 101 fmod;
#X obj 259 181 surr 1;
#X obj 339 181 surr 2;
#X obj 419 181 surr 3;
#X obj 499 181 surr 4;
#X obj 579 181 surr 5;
#X connect 0 0 37 0;
#X connect 1 0 3 0;
#X connect 2 0 4 1;
#X connect 3 0 2 0;
#X connect 4 0 34 0;
#X connect 5 0 6 0;
#X connect 6 0 7 0;
#X connect 7 0 8 0;
#X connect 8 0 4 0;
#X connect 8 0 17 0;
#X connect 8 0 21 0;
#X connect 8 0 25 0;
#X connect 8 0 29 0;
#X connect 8 0 33 0;
#X connect 9 0 13 0;
#X connect 9 0 38 0;
#X connect 9 0 39 0;
#X connect 9 0 40 0;
#X connect 9 0 41 0;
#X connect 9 0 42 0;
#X connect 10 0 37 1;
#X connect 12 0 11 0;
#X connect 13 0 1 0;
#X connect 14 0 16 0;
#X connect 15 0 17 1;
#X connect 16 0 15 0;
#X connect 17 0 34 1;
#X connect 18 0 20 0;
#X connect 19 0 21 1;
#X connect 20 0 19 0;
#X connect 21 0 34 2;
#X connect 22 0 24 0;
#X connect 23 0 25 1;
#X connect 24 0 23 0;
#X connect 25 0 34 3;
#X connect 26 0 28 0;
#X connect 27 0 29 1;
#X connect 28 0 27 0;
#X connect 29 0 34 4;
#X connect 30 0 32 0;
#X connect 31 0 33 1;
#X connect 32 0 31 0;
#X connect 33 0 34 5;
#X connect 35 0 36 0;
#X connect 36 0 12 0;
#X connect 37 0 9 0;
#X connect 38 0 14 0;
#X connect 39 0 18 0;
#X connect 40 0 22 0;
#X connect 41 0 26 0;
#X connect 42 0 30 0;
