#N canvas 658 117 583 575 10;
#X obj 137 374 \$1;
#X obj 112 445 - \$1;
#X obj 112 490 cos;
#X obj 112 423 clip -1 1;
#X obj 137 397 - 1;
#X obj 167 397 + 1;
#X obj 44 18 inlet;
#X obj 112 514 outlet;
#X obj 137 353 loadbang;
#X obj 112 468 * 1.5707;
#X obj 71 349 spigot;
#X obj 44 215 t f f;
#X obj 44 272 moses;
#X obj 71 250 - 1;
#X obj 71 294 -;
#X obj 104 328 == 0;
#X obj 104 307 \$1;
#X obj 104 286 loadbang;
#X obj 44 194 spigot;
#X obj 120 53 r maxSpeakers;
#X obj 120 117 t f f;
#X msg 120 159 0;
#X obj 120 74 t f f f;
#X obj 120 138 select 0;
#X obj 120 95 > \$1;
#X text 213 72 //although a bit hairy \, this object is built to accept
an input ranging from (\$1 - 1) to (\$1 + 1) \, and create a bell-curve
raise and fall centered at (\$1).;
#X text 213 122 //it accepts a 'maxSpeakers' argument that checks if
the instance is (\$1 == 0) \, and if it is \, it will also accept the
range of (maxSpeakers - 1) to (maxSpeakers) as if it was the lower
bounds (-1 to 0).;
#X connect 0 0 5 0;
#X connect 0 0 4 0;
#X connect 1 0 9 0;
#X connect 2 0 7 0;
#X connect 3 0 1 0;
#X connect 4 0 3 1;
#X connect 5 0 3 2;
#X connect 6 0 18 0;
#X connect 8 0 0 0;
#X connect 9 0 2 0;
#X connect 10 0 3 0;
#X connect 11 0 12 0;
#X connect 11 1 3 0;
#X connect 12 1 14 0;
#X connect 13 0 12 1;
#X connect 14 0 10 0;
#X connect 15 0 10 1;
#X connect 16 0 15 0;
#X connect 17 0 16 0;
#X connect 18 0 11 0;
#X connect 19 0 22 0;
#X connect 20 0 23 0;
#X connect 20 1 18 1;
#X connect 21 0 11 0;
#X connect 22 0 24 0;
#X connect 22 1 13 0;
#X connect 22 2 14 1;
#X connect 23 0 21 0;
#X connect 24 0 20 0;
