#N canvas 211 99 643 262 10;
#X obj 20 86 cnv 15 200 100 empty empty empty 20 12 0 14 -233017 -66577
0;
#X floatatom 59 200 5 0 0 0 - - -;
#X floatatom 60 62 5 0 0 0 - - -;
#X obj 63 39 hsl 128 15 -100 100 0 0 empty empty empty -2 -8 0 10 -262144
-1 -1 0 1;
#X text 25 38 -100;
#X text 201 38 100;
#X text 260 102 the reported value at the bottom should only show positive
numbers (i.e. \, if the incoming number is negative \, it should be
flipped to positive).;
#X text 260 81 pd puzzler math-6:;
#X obj 60 93 abs;
#X connect 2 0 8 0;
#X connect 3 0 2 0;
#X connect 8 0 1 0;
