#N canvas 0 22 506 441 10;
#X obj 81 66 inlet;
#X obj 81 335 line~;
#X obj 81 370 outlet~;
#X obj 172 238 delay;
#X obj 199 214 +;
#X obj 81 114 unpack f f f;
#X obj 172 299 pack f f;
#X msg 172 270 0;
#X obj 81 299 pack f f;
#X msg 81 269 1;
#X obj 81 142 t b f f;
#X obj 81 174 t b b;
#X text 122 66 //input expects list (a h r) in ms;
#X text 79 23 //ahr2~;
#X connect 0 0 5 0;
#X connect 1 0 2 0;
#X connect 3 0 7 0;
#X connect 4 0 3 1;
#X connect 5 0 10 0;
#X connect 5 1 4 1;
#X connect 5 2 6 1;
#X connect 6 0 1 0;
#X connect 7 0 6 0;
#X connect 8 0 1 0;
#X connect 9 0 8 0;
#X connect 10 0 11 0;
#X connect 10 1 4 0;
#X connect 10 2 8 1;
#X connect 11 0 9 0;
#X connect 11 1 3 0;
