#N canvas 0 22 512 403 10;
#X obj 43 271 line~;
#X text 43 15 //ahr~;
#X obj 43 73 inlet;
#X obj 43 306 outlet~;
#X obj 43 212 \$1;
#X msg 43 234 1 \$1;
#X obj 43 100 t b b b;
#X obj 160 139 \$2;
#X obj 133 184 delay;
#X obj 160 162 + \$1;
#X obj 133 211 \$3;
#X msg 133 234 0 \$1;
#X text 43 35 //object arguments are (attack hold release) in ms;
#X connect 0 0 3 0;
#X connect 2 0 6 0;
#X connect 4 0 5 0;
#X connect 5 0 0 0;
#X connect 6 0 4 0;
#X connect 6 1 8 0;
#X connect 6 2 7 0;
#X connect 7 0 9 0;
#X connect 8 0 10 0;
#X connect 9 0 8 1;
#X connect 10 0 11 0;
#X connect 11 0 0 0;
