#N canvas 0 22 1280 699 16;
#X obj 52 39 pddp/dsp;
#X obj 46 270 stereo-pd;
#X obj 54 81 vu 15 120 masterVU empty -1 -8 0 10 -66577 -1 1 0;
#N canvas 164 195 914 360 vu 0;
#X obj 11 106 - 100;
#X obj 11 74 env~ 256;
#X obj 11 143 s masterVU;
#X obj 11 34 adc~ 1;
#X connect 0 0 2 0;
#X connect 1 0 0 0;
#X connect 3 0 1 0;
#X restore 48 333 pd vu;
#N canvas 172 62 1580 913 midiInput 0;
#X floatatom 345 53 5 0 0 0 - - -;
#X floatatom 320 78 5 0 0 0 - - -;
#X floatatom 291 106 5 0 0 0 - - -;
#X obj 435 220 s midiCtl;
#X text 406 53 midi channel;
#X text 378 78 controller #;
#X text 348 108 value;
#X obj 288 18 ctlin;
#X obj 227 20 pgmin;
#X floatatom 228 105 5 0 0 0 - - -;
#X obj 294 186 f;
#X obj 293 214 pack f f f;
#X obj 294 152 t b f;
#X obj 239 277 route 1 2 3 4;
#X floatatom 23 381 5 0 0 0 - - -;
#X floatatom 96 381 5 0 0 0 - - -;
#X obj 24 422 / 127;
#X obj 26 457 pow 2;
#X obj 28 527 + 5;
#X obj 26 493 * 63;
#X obj 89 438 s expr-pedal-right-1;
#X obj 26 568 s expr-pedal-left-1;
#X floatatom 250 561 5 0 0 0 - - -;
#X floatatom 323 561 5 0 0 0 - - -;
#X obj 244 519 route 27 7;
#X obj 251 602 / 127;
#X obj 253 637 pow 2;
#X obj 255 707 + 5;
#X obj 253 673 * 63;
#X text 370 518 //Inverse;
#X obj 423 608 s expr-pedal-right-in-2;
#X obj 253 748 s expr-pedal-left-in-2;
#X floatatom 678 435 5 0 0 0 - - -;
#X floatatom 751 435 5 0 0 0 - - -;
#X obj 672 393 route 27 7;
#X obj 679 476 / 127;
#X obj 681 511 pow 2;
#X obj 683 581 + 5;
#X obj 681 547 * 63;
#X obj 17 339 route 27 7;
#X obj 681 622 s expr-pedal-left-3;
#X obj 744 492 s expr-pedal-right-3;
#X floatatom 984 437 5 0 0 0 - - -;
#X floatatom 1057 437 5 0 0 0 - - -;
#X obj 978 395 route 27 7;
#X obj 985 478 / 127;
#X obj 987 513 pow 2;
#X obj 989 583 + 5;
#X obj 987 549 * 63;
#X obj 1050 494 s expr-pedal-right-4;
#X obj 987 624 s expr-pedal-left-4;
#X connect 1 0 11 1;
#X connect 2 0 12 0;
#X connect 7 0 2 0;
#X connect 7 1 1 0;
#X connect 7 2 0 0;
#X connect 8 0 9 0;
#X connect 9 0 10 1;
#X connect 10 0 11 0;
#X connect 11 0 13 0;
#X connect 12 0 10 0;
#X connect 12 1 11 2;
#X connect 13 0 39 0;
#X connect 13 1 24 0;
#X connect 13 2 34 0;
#X connect 13 3 44 0;
#X connect 14 0 16 0;
#X connect 15 0 20 0;
#X connect 16 0 17 0;
#X connect 17 0 19 0;
#X connect 18 0 21 0;
#X connect 19 0 18 0;
#X connect 22 0 25 0;
#X connect 23 0 30 0;
#X connect 24 0 22 0;
#X connect 24 1 23 0;
#X connect 25 0 26 0;
#X connect 26 0 28 0;
#X connect 27 0 31 0;
#X connect 28 0 27 0;
#X connect 32 0 35 0;
#X connect 33 0 41 0;
#X connect 34 0 32 0;
#X connect 34 1 33 0;
#X connect 35 0 36 0;
#X connect 36 0 38 0;
#X connect 37 0 40 0;
#X connect 38 0 37 0;
#X connect 39 0 14 0;
#X connect 39 1 15 0;
#X connect 42 0 45 0;
#X connect 43 0 49 0;
#X connect 44 0 42 0;
#X connect 44 1 43 0;
#X connect 45 0 46 0;
#X connect 46 0 48 0;
#X connect 47 0 50 0;
#X connect 48 0 47 0;
#X restore 47 300 pd midiInput;
#N canvas 173 73 1020 597 surroundZero~ 0;
#X floatatom 199 87 5 0 0 0 - - -;
#X obj 199 248 vsl 15 128 0 1 0 0 empty empty empty 0 -9 0 10 -262144
-1 -1 4101 1;
#X obj 199 409 line~;
#X msg 199 388 \$1 10;
#X obj 184 432 *~;
#X obj 794 349 phasor~ 88;
#X obj 794 371 *~ 2;
#X obj 794 393 -~ 1;
#X obj 794 415 *~ 0.2;
#X floatatom 199 157 5 0 0 0 - - -;
#X obj 288 86 r maxSpeakers;
#X obj 610 170 s maxSpeakers;
#X floatatom 610 149 5 0 0 0 - - -;
#X obj 199 211 surr 0;
#X obj 289 248 vsl 15 128 0 1 0 0 empty empty empty 0 -9 0 10 -262144
-1 -1 1 1;
#X obj 289 409 line~;
#X msg 289 388 \$1 10;
#X obj 274 432 *~;
#X obj 369 248 vsl 15 128 0 1 0 0 empty empty empty 0 -9 0 10 -262144
-1 -1 1 1;
#X obj 369 409 line~;
#X msg 369 388 \$1 10;
#X obj 354 432 *~;
#X obj 449 248 vsl 15 128 0 1 0 0 empty empty empty 0 -9 0 10 -262144
-1 -1 12020 1;
#X obj 449 409 line~;
#X msg 449 388 \$1 10;
#X obj 434 432 *~;
#X obj 529 248 vsl 15 128 0 1 0 0 empty empty empty 0 -9 0 10 -262144
-1 -1 1 1;
#X obj 529 409 line~;
#X msg 529 388 \$1 10;
#X obj 514 432 *~;
#X obj 609 248 vsl 15 128 0 1 0 0 empty empty empty 0 -9 0 10 -262144
-1 -1 1 1;
#X obj 609 409 line~;
#X msg 609 388 \$1 10;
#X obj 594 432 *~;
#X obj 608 88 loadbang;
#X obj 199 131 fmod;
#X obj 289 211 surr 1;
#X obj 369 211 surr 2;
#X obj 449 211 surr 3;
#X obj 529 211 surr 4;
#X obj 609 211 surr 5;
#X msg 608 110 4;
#X obj 55 232 inlet~;
#N canvas 723 439 450 300 metro-sin-1 0;
#X obj 143 187 * 6.28319;
#X obj 143 167 / 360;
#X floatatom 143 207 0 0 0 0 - - -;
#X floatatom 143 144 0 0 0 0 - - -;
#X obj 143 120 int;
#X obj 174 121 + 1;
#X obj 143 229 outlet;
#X obj 140 48 loadbang;
#X obj 144 71 bng 15 250 50 0 empty empty empty 17 7 0 10 -262144 -1
-1;
#X obj 143 93 metro 50;
#X obj 231 95 print;
#X obj 261 48 r expr-pedal-left-1;
#X connect 0 0 2 0;
#X connect 1 0 0 0;
#X connect 2 0 6 0;
#X connect 3 0 1 0;
#X connect 4 0 3 0;
#X connect 4 0 5 0;
#X connect 5 0 4 1;
#X connect 7 0 8 0;
#X connect 8 0 9 0;
#X connect 9 0 4 0;
#X connect 11 0 9 1;
#X connect 11 0 10 0;
#X restore 197 43 pd metro-sin-1;
#X obj 184 496 dac~ 3 4 7 8;
#X connect 0 0 35 0;
#X connect 1 0 3 0;
#X connect 2 0 4 1;
#X connect 3 0 2 0;
#X connect 4 0 44 0;
#X connect 5 0 6 0;
#X connect 6 0 7 0;
#X connect 7 0 8 0;
#X connect 9 0 13 0;
#X connect 9 0 36 0;
#X connect 9 0 37 0;
#X connect 9 0 38 0;
#X connect 9 0 39 0;
#X connect 9 0 40 0;
#X connect 10 0 35 1;
#X connect 12 0 11 0;
#X connect 13 0 1 0;
#X connect 14 0 16 0;
#X connect 15 0 17 1;
#X connect 16 0 15 0;
#X connect 17 0 44 1;
#X connect 18 0 20 0;
#X connect 19 0 21 1;
#X connect 20 0 19 0;
#X connect 21 0 44 3;
#X connect 22 0 24 0;
#X connect 23 0 25 1;
#X connect 24 0 23 0;
#X connect 25 0 44 2;
#X connect 26 0 28 0;
#X connect 27 0 29 1;
#X connect 28 0 27 0;
#X connect 30 0 32 0;
#X connect 31 0 33 1;
#X connect 32 0 31 0;
#X connect 34 0 41 0;
#X connect 35 0 9 0;
#X connect 36 0 14 0;
#X connect 37 0 18 0;
#X connect 38 0 22 0;
#X connect 39 0 26 0;
#X connect 40 0 30 0;
#X connect 41 0 12 0;
#X connect 42 0 4 0;
#X connect 42 0 17 0;
#X connect 42 0 21 0;
#X connect 42 0 25 0;
#X connect 42 0 29 0;
#X connect 42 0 33 0;
#X connect 43 0 0 0;
#X restore 240 271 pd surroundZero~;
#N canvas 391 211 1274 648 surroundTwo~ 0;
#X floatatom 199 88 5 0 0 0 - - -;
#X obj 199 249 vsl 15 128 0 1 0 0 empty empty empty 0 -9 0 10 -262144
-1 -1 2753 1;
#X obj 199 410 line~;
#X msg 199 389 \$1 10;
#X obj 184 433 *~;
#X obj 794 350 phasor~ 88;
#X obj 794 372 *~ 2;
#X obj 794 394 -~ 1;
#X obj 794 416 *~ 0.2;
#X floatatom 199 158 5 0 0 0 - - -;
#X obj 220 109 r maxSpeakers;
#X obj 608 153 s maxSpeakers;
#X floatatom 608 132 5 0 0 0 - - -;
#X obj 199 212 surr 0;
#X obj 289 249 vsl 15 128 0 1 0 0 empty empty empty 0 -9 0 10 -262144
-1 -1 12398 1;
#X obj 289 410 line~;
#X msg 289 389 \$1 10;
#X obj 274 433 *~;
#X obj 369 249 vsl 15 128 0 1 0 0 empty empty empty 0 -9 0 10 -262144
-1 -1 1 1;
#X obj 369 410 line~;
#X msg 369 389 \$1 10;
#X obj 354 433 *~;
#X obj 449 249 vsl 15 128 0 1 0 0 empty empty empty 0 -9 0 10 -262144
-1 -1 1 1;
#X obj 449 410 line~;
#X msg 449 389 \$1 10;
#X obj 434 433 *~;
#X obj 529 249 vsl 15 128 0 1 0 0 empty empty empty 0 -9 0 10 -262144
-1 -1 1 1;
#X obj 529 410 line~;
#X msg 529 389 \$1 10;
#X obj 514 433 *~;
#X obj 609 249 vsl 15 128 0 1 0 0 empty empty empty 0 -9 0 10 -262144
-1 -1 1 1;
#X obj 609 410 line~;
#X msg 609 389 \$1 10;
#X obj 594 433 *~;
#X obj 608 89 loadbang;
#X obj 199 132 fmod;
#X obj 289 212 surr 1;
#X obj 369 212 surr 2;
#X obj 449 212 surr 3;
#X obj 529 212 surr 4;
#X obj 609 212 surr 5;
#X msg 608 111 4;
#X obj 55 233 inlet~;
#N canvas 690 372 450 300 metro-sin-3 0;
#X obj 143 187 * 6.28319;
#X obj 143 167 / 360;
#X floatatom 143 207 0 0 0 0 - - -;
#X floatatom 143 144 0 0 0 0 - - -;
#X obj 143 120 int;
#X obj 174 121 + 1;
#X obj 143 229 outlet;
#X obj 140 48 loadbang;
#X obj 144 71 bng 15 250 50 0 empty empty empty 17 7 0 10 -262144 -1
-1;
#X obj 143 93 metro 50;
#X connect 0 0 2 0;
#X connect 1 0 0 0;
#X connect 2 0 6 0;
#X connect 3 0 1 0;
#X connect 4 0 3 0;
#X connect 4 0 5 0;
#X connect 5 0 4 1;
#X connect 7 0 8 0;
#X connect 8 0 9 0;
#X connect 9 0 4 0;
#X restore 197 44 pd metro-sin-3;
#X obj 184 497 dac~ 3 4 7 8;
#X connect 0 0 35 0;
#X connect 1 0 3 0;
#X connect 2 0 4 1;
#X connect 3 0 2 0;
#X connect 4 0 44 0;
#X connect 5 0 6 0;
#X connect 6 0 7 0;
#X connect 7 0 8 0;
#X connect 9 0 13 0;
#X connect 9 0 36 0;
#X connect 9 0 37 0;
#X connect 9 0 38 0;
#X connect 9 0 39 0;
#X connect 9 0 40 0;
#X connect 10 0 35 1;
#X connect 12 0 11 0;
#X connect 13 0 1 0;
#X connect 14 0 16 0;
#X connect 15 0 17 1;
#X connect 16 0 15 0;
#X connect 17 0 44 1;
#X connect 18 0 20 0;
#X connect 19 0 21 1;
#X connect 20 0 19 0;
#X connect 21 0 44 3;
#X connect 22 0 24 0;
#X connect 23 0 25 1;
#X connect 24 0 23 0;
#X connect 25 0 44 2;
#X connect 26 0 28 0;
#X connect 27 0 29 1;
#X connect 28 0 27 0;
#X connect 30 0 32 0;
#X connect 31 0 33 1;
#X connect 32 0 31 0;
#X connect 34 0 41 0;
#X connect 35 0 9 0;
#X connect 36 0 14 0;
#X connect 37 0 18 0;
#X connect 38 0 22 0;
#X connect 39 0 26 0;
#X connect 40 0 30 0;
#X connect 41 0 12 0;
#X connect 42 0 4 0;
#X connect 42 0 17 0;
#X connect 42 0 21 0;
#X connect 42 0 25 0;
#X connect 42 0 29 0;
#X connect 42 0 33 0;
#X connect 43 0 0 0;
#X restore 603 180 pd surroundTwo~;
#N canvas 768 457 450 300 pong-filter-1 0;
#X obj 89 19 inlet~;
#X obj 81 219 outlet~;
#X obj 259 81 *~ 0.75;
#X obj 89 52 delwrite~ pongArray-\$0 1000;
#X obj 81 179 vd~ pongArray-\$0 500;
#X msg 31 134 500;
#X obj 20 96 loadbang;
#X obj 90 129 bng 15 250 50 0 empty empty empty 17 7 0 10 -262144 -1
-1;
#X connect 0 0 3 0;
#X connect 2 0 3 0;
#X connect 4 0 1 0;
#X connect 4 0 2 0;
#X connect 5 0 4 0;
#X connect 6 0 7 0;
#X connect 7 0 5 0;
#X restore 238 227 pd pong-filter-1;
#N canvas 380 556 450 300 volumePedal-in-2 1;
#X obj 44 -599 *~;
#X obj 116 -615 line~;
#X obj 146 -720 + 1;
#X obj 139 -693 / 127;
#X obj 25 -711 inlet~;
#X obj 43 -542 outlet~;
#X obj 213 -703 loadbang;
#X msg 211 -647 0 0;
#X msg 138 -655 \$1 10;
#X obj 145 -752 r expr-pedal-right-in-2;
#X connect 0 0 5 0;
#X connect 1 0 0 1;
#X connect 2 0 3 0;
#X connect 3 0 8 0;
#X connect 4 0 0 0;
#X connect 6 0 7 0;
#X connect 7 0 1 0;
#X connect 8 0 1 0;
#X connect 9 0 2 0;
#X restore 398 135 pd volumePedal-in-2;
#N canvas 767 514 450 300 pong-filter-2 1;
#X obj 89 19 inlet~;
#X obj 81 219 outlet~;
#X obj 259 81 *~ 0.75;
#X msg 31 134 500;
#X obj -4 62 loadbang;
#X obj 89 52 delwrite~ pongArray-\$1 1000;
#X obj 81 179 vd~ pongArray-\$1 500;
#X obj 29 98 bng 15 250 50 0 empty empty empty 17 7 0 10 -262144 -1
-1;
#X connect 0 0 5 0;
#X connect 2 0 5 0;
#X connect 3 0 6 0;
#X connect 4 0 7 0;
#X connect 6 0 1 0;
#X connect 6 0 2 0;
#X connect 7 0 3 0;
#X restore 404 192 pd pong-filter-2;
#N canvas 216 568 683 409 pong-filter-tweak-3 1;
#X obj 259 101 inlet~;
#X obj 251 301 outlet~;
#X obj 429 163 *~ 0.75;
#X obj 122 187 line~;
#X msg 123 159 \$1 300;
#X obj 35 137 * 6;
#X obj 28 164 + 40;
#X obj 259 134 delwrite~ pongTweakArray-\$0 1000;
#X obj 251 261 vd~ pongTweakArray-\$0 500;
#X obj 34 93 r expr-pedal-left-3;
#X connect 0 0 7 0;
#X connect 2 0 7 0;
#X connect 3 0 8 0;
#X connect 4 0 3 0;
#X connect 5 0 6 0;
#X connect 6 0 4 0;
#X connect 8 0 1 0;
#X connect 8 0 2 0;
#X connect 9 0 5 0;
#X restore 603 136 pd pong-filter-tweak-3;
#N canvas 1010 341 683 409 pong-filter-tweak-4 0;
#X obj 259 101 inlet~;
#X obj 251 301 outlet~;
#X obj 429 163 *~ 0.75;
#X obj 122 187 line~;
#X msg 123 159 \$1 300;
#X obj 35 137 * 6;
#X obj 28 164 + 40;
#X obj 259 134 delwrite~ pongTweakArray-\$1 1000;
#X obj 251 261 vd~ pongTweakArray-\$1 500;
#X obj 34 93 r expr-pedal-left-4;
#X connect 0 0 7 0;
#X connect 2 0 7 0;
#X connect 3 0 8 0;
#X connect 4 0 3 0;
#X connect 5 0 6 0;
#X connect 6 0 4 0;
#X connect 8 0 1 0;
#X connect 8 0 2 0;
#X connect 9 0 5 0;
#X restore 852 93 pd pong-filter-tweak-4;
#N canvas 369 171 1087 604 surroundInverseOne~ 0;
#X floatatom 189 77 5 0 0 0 - - -;
#X obj 189 238 vsl 15 128 0 1 0 0 empty empty empty 0 -9 0 10 -262144
-1 -1 6119 1;
#X obj 189 399 line~;
#X msg 189 378 \$1 10;
#X obj 174 422 *~;
#X obj 784 339 phasor~ 88;
#X obj 784 361 *~ 2;
#X obj 784 383 -~ 1;
#X obj 784 405 *~ 0.2;
#X floatatom 189 147 5 0 0 0 - - -;
#X obj 210 98 r maxSpeakers;
#X obj 598 142 s maxSpeakers;
#X floatatom 598 121 5 0 0 0 - - -;
#X obj 189 201 surr 0;
#X obj 279 238 vsl 15 128 0 1 0 0 empty empty empty 0 -9 0 10 -262144
-1 -1 1 1;
#X obj 279 399 line~;
#X msg 279 378 \$1 10;
#X obj 264 422 *~;
#X obj 359 238 vsl 15 128 0 1 0 0 empty empty empty 0 -9 0 10 -262144
-1 -1 1 1;
#X obj 359 399 line~;
#X msg 359 378 \$1 10;
#X obj 344 422 *~;
#X obj 439 238 vsl 15 128 0 1 0 0 empty empty empty 0 -9 0 10 -262144
-1 -1 11130 1;
#X obj 439 399 line~;
#X msg 439 378 \$1 10;
#X obj 424 422 *~;
#X obj 519 238 vsl 15 128 0 1 0 0 empty empty empty 0 -9 0 10 -262144
-1 -1 1 1;
#X obj 519 399 line~;
#X msg 519 378 \$1 10;
#X obj 504 422 *~;
#X obj 599 238 vsl 15 128 0 1 0 0 empty empty empty 0 -9 0 10 -262144
-1 -1 1 1;
#X obj 599 399 line~;
#X msg 599 378 \$1 10;
#X obj 584 422 *~;
#X obj 598 78 loadbang;
#X obj 189 121 fmod;
#X obj 279 201 surr 1;
#X obj 359 201 surr 2;
#X obj 439 201 surr 3;
#X obj 519 201 surr 4;
#X obj 599 201 surr 5;
#X msg 598 100 4;
#X obj 45 222 inlet~;
#N canvas 723 439 450 300 metro-sin-in-2 0;
#X obj 143 187 * 6.28319;
#X obj 143 167 / 360;
#X floatatom 143 207 0 0 0 0 - - -;
#X floatatom 143 144 0 0 0 0 - - -;
#X obj 143 120 int;
#X obj 174 121 + 1;
#X obj 143 229 outlet;
#X obj 140 48 loadbang;
#X obj 144 71 bng 15 250 50 0 empty empty empty 17 7 0 10 -262144 -1
-1;
#X obj 143 93 metro 50;
#X obj 231 95 print;
#X obj 261 48 r expr-pedal-left-in-2;
#X connect 0 0 2 0;
#X connect 1 0 0 0;
#X connect 2 0 6 0;
#X connect 3 0 1 0;
#X connect 4 0 3 0;
#X connect 4 0 5 0;
#X connect 5 0 4 1;
#X connect 7 0 8 0;
#X connect 8 0 9 0;
#X connect 9 0 4 0;
#X connect 11 0 9 1;
#X connect 11 0 10 0;
#X restore 190 15 pd metro-sin-in-2;
#X obj 189 46 * -1;
#X obj 174 486 dac~ 3 4 7 8;
#X connect 0 0 35 0;
#X connect 1 0 3 0;
#X connect 2 0 4 1;
#X connect 3 0 2 0;
#X connect 4 0 45 0;
#X connect 5 0 6 0;
#X connect 6 0 7 0;
#X connect 7 0 8 0;
#X connect 9 0 13 0;
#X connect 9 0 36 0;
#X connect 9 0 37 0;
#X connect 9 0 38 0;
#X connect 9 0 39 0;
#X connect 9 0 40 0;
#X connect 10 0 35 1;
#X connect 12 0 11 0;
#X connect 13 0 1 0;
#X connect 14 0 16 0;
#X connect 15 0 17 1;
#X connect 16 0 15 0;
#X connect 17 0 45 1;
#X connect 18 0 20 0;
#X connect 19 0 21 1;
#X connect 20 0 19 0;
#X connect 21 0 45 3;
#X connect 22 0 24 0;
#X connect 23 0 25 1;
#X connect 24 0 23 0;
#X connect 25 0 45 2;
#X connect 26 0 28 0;
#X connect 27 0 29 1;
#X connect 28 0 27 0;
#X connect 30 0 32 0;
#X connect 31 0 33 1;
#X connect 32 0 31 0;
#X connect 34 0 41 0;
#X connect 35 0 9 0;
#X connect 36 0 14 0;
#X connect 37 0 18 0;
#X connect 38 0 22 0;
#X connect 39 0 26 0;
#X connect 40 0 30 0;
#X connect 41 0 12 0;
#X connect 42 0 4 0;
#X connect 42 0 17 0;
#X connect 42 0 21 0;
#X connect 42 0 25 0;
#X connect 42 0 29 0;
#X connect 42 0 33 0;
#X connect 43 0 44 0;
#X connect 44 0 0 0;
#X restore 425 280 pd surroundInverseOne~;
#N canvas 796 493 450 300 volumePedal-3 0;
#X obj 44 -599 *~;
#X obj 116 -615 line~;
#X obj 139 -693 / 127;
#X obj 25 -711 inlet~;
#X obj 43 -542 outlet~;
#X obj 145 -752 r expr-pedal-right-3;
#X msg 134 -659 \$1 10;
#X msg 223 -643 0 10;
#X obj 221 -673 loadbang;
#X connect 0 0 4 0;
#X connect 1 0 0 1;
#X connect 2 0 6 0;
#X connect 3 0 0 0;
#X connect 5 0 2 0;
#X connect 6 0 1 0;
#X connect 7 0 1 0;
#X connect 8 0 7 0;
#X restore 613 106 pd volumePedal-3;
#N canvas 796 493 450 300 volumePedal-1 0;
#X obj 44 -599 *~;
#X obj 116 -615 line~;
#X obj 139 -693 / 127;
#X obj 25 -711 inlet~;
#X obj 43 -542 outlet~;
#X msg 134 -659 \$1 10;
#X msg 223 -643 0 10;
#X obj 221 -673 loadbang;
#X obj 145 -752 r expr-pedal-right-1;
#X connect 0 0 4 0;
#X connect 1 0 0 1;
#X connect 2 0 5 0;
#X connect 3 0 0 0;
#X connect 5 0 1 0;
#X connect 6 0 1 0;
#X connect 7 0 6 0;
#X connect 8 0 2 0;
#X restore 231 184 pd volumePedal-1;
#N canvas 417 407 450 300 volumePedal-4 0;
#X obj 44 -599 *~;
#X obj 116 -615 line~;
#X obj 139 -693 / 127;
#X obj 25 -711 inlet~;
#X obj 43 -542 outlet~;
#X msg 134 -659 \$1 10;
#X msg 223 -643 0 10;
#X obj 221 -673 loadbang;
#X obj 145 -752 r expr-pedal-right-4;
#X connect 0 0 4 0;
#X connect 1 0 0 1;
#X connect 2 0 5 0;
#X connect 3 0 0 0;
#X connect 5 0 1 0;
#X connect 6 0 1 0;
#X connect 7 0 6 0;
#X connect 8 0 2 0;
#X restore 848 64 pd volumePedal-4;
#N canvas 118 89 1087 604 surroundInverseFour~ 0;
#X floatatom 189 77 5 0 0 0 - - -;
#X obj 189 238 vsl 15 128 0 1 0 0 empty empty empty 0 -9 0 10 -262144
-1 -1 2753 1;
#X obj 189 399 line~;
#X msg 189 378 \$1 10;
#X obj 174 422 *~;
#X obj 784 339 phasor~ 88;
#X obj 784 361 *~ 2;
#X obj 784 383 -~ 1;
#X obj 784 405 *~ 0.2;
#X floatatom 189 147 5 0 0 0 - - -;
#X obj 210 98 r maxSpeakers;
#X obj 598 142 s maxSpeakers;
#X floatatom 598 121 5 0 0 0 - - -;
#X obj 189 201 surr 0;
#X obj 279 238 vsl 15 128 0 1 0 0 empty empty empty 0 -9 0 10 -262144
-1 -1 1 1;
#X obj 279 399 line~;
#X msg 279 378 \$1 10;
#X obj 264 422 *~;
#X obj 359 238 vsl 15 128 0 1 0 0 empty empty empty 0 -9 0 10 -262144
-1 -1 1 1;
#X obj 359 399 line~;
#X msg 359 378 \$1 10;
#X obj 344 422 *~;
#X obj 439 238 vsl 15 128 0 1 0 0 empty empty empty 0 -9 0 10 -262144
-1 -1 12398 1;
#X obj 439 399 line~;
#X msg 439 378 \$1 10;
#X obj 424 422 *~;
#X obj 519 238 vsl 15 128 0 1 0 0 empty empty empty 0 -9 0 10 -262144
-1 -1 1 1;
#X obj 519 399 line~;
#X msg 519 378 \$1 10;
#X obj 504 422 *~;
#X obj 599 238 vsl 15 128 0 1 0 0 empty empty empty 0 -9 0 10 -262144
-1 -1 1 1;
#X obj 599 399 line~;
#X msg 599 378 \$1 10;
#X obj 584 422 *~;
#X obj 598 78 loadbang;
#X obj 189 121 fmod;
#X obj 279 201 surr 1;
#X obj 359 201 surr 2;
#X obj 439 201 surr 3;
#X obj 519 201 surr 4;
#X obj 599 201 surr 5;
#X msg 598 100 4;
#X obj 45 222 inlet~;
#N canvas 723 439 450 300 metro-sin-in-4 0;
#X obj 143 187 * 6.28319;
#X obj 143 167 / 360;
#X floatatom 143 207 0 0 0 0 - - -;
#X floatatom 143 144 0 0 0 0 - - -;
#X obj 143 120 int;
#X obj 174 121 + 1;
#X obj 143 229 outlet;
#X obj 140 48 loadbang;
#X obj 144 71 bng 15 250 50 0 empty empty empty 17 7 0 10 -262144 -1
-1;
#X obj 143 93 metro 50;
#X connect 0 0 2 0;
#X connect 1 0 0 0;
#X connect 2 0 6 0;
#X connect 3 0 1 0;
#X connect 4 0 3 0;
#X connect 4 0 5 0;
#X connect 5 0 4 1;
#X connect 7 0 8 0;
#X connect 8 0 9 0;
#X connect 9 0 4 0;
#X restore 188 20 pd metro-sin-in-4;
#X obj 187 49 * -1;
#X obj 174 486 dac~ 3 4 7 8;
#X connect 0 0 35 0;
#X connect 1 0 3 0;
#X connect 2 0 4 1;
#X connect 3 0 2 0;
#X connect 4 0 45 0;
#X connect 5 0 6 0;
#X connect 6 0 7 0;
#X connect 7 0 8 0;
#X connect 9 0 13 0;
#X connect 9 0 36 0;
#X connect 9 0 37 0;
#X connect 9 0 38 0;
#X connect 9 0 39 0;
#X connect 9 0 40 0;
#X connect 10 0 35 1;
#X connect 12 0 11 0;
#X connect 13 0 1 0;
#X connect 14 0 16 0;
#X connect 15 0 17 1;
#X connect 16 0 15 0;
#X connect 17 0 45 1;
#X connect 18 0 20 0;
#X connect 19 0 21 1;
#X connect 20 0 19 0;
#X connect 21 0 45 3;
#X connect 22 0 24 0;
#X connect 23 0 25 1;
#X connect 24 0 23 0;
#X connect 25 0 45 2;
#X connect 26 0 28 0;
#X connect 27 0 29 1;
#X connect 28 0 27 0;
#X connect 30 0 32 0;
#X connect 31 0 33 1;
#X connect 32 0 31 0;
#X connect 34 0 41 0;
#X connect 35 0 9 0;
#X connect 36 0 14 0;
#X connect 37 0 18 0;
#X connect 38 0 22 0;
#X connect 39 0 26 0;
#X connect 40 0 30 0;
#X connect 41 0 12 0;
#X connect 42 0 4 0;
#X connect 42 0 17 0;
#X connect 42 0 21 0;
#X connect 42 0 25 0;
#X connect 42 0 29 0;
#X connect 42 0 33 0;
#X connect 43 0 44 0;
#X connect 44 0 0 0;
#X restore 836 182 pd surroundInverseFour~;
#X obj 202 49 adc~ 1;
#X connect 7 0 5 0;
#X connect 8 0 9 0;
#X connect 9 0 12 0;
#X connect 10 0 6 0;
#X connect 11 0 16 0;
#X connect 13 0 10 0;
#X connect 14 0 7 0;
#X connect 15 0 11 0;
#X connect 17 0 8 0;
#X connect 17 0 14 0;
#X connect 17 0 15 0;
#X connect 17 0 13 0;
