#N canvas 218 520 661 409 10;
#X obj 249 91 inlet~;
#X obj 241 291 outlet~;
#X obj 419 153 *~ 0.75;
#X obj 249 124 delwrite~ pongArray-\$0 1000;
#X obj 241 251 vd~ pongArray-\$0 500;
#X obj 112 177 line~;
#X msg 113 149 \$1 300;
#X obj 25 127 * 6;
#X obj 18 154 + 40;
#X obj 38 88 r expr-pedal-right-\$0;
#X obj 70 123 print;
#X connect 0 0 3 0;
#X connect 2 0 3 0;
#X connect 4 0 1 0;
#X connect 4 0 2 0;
#X connect 5 0 4 0;
#X connect 6 0 5 0;
#X connect 7 0 8 0;
#X connect 8 0 6 0;
#X connect 9 0 7 0;
#X connect 9 0 10 0;
