#N canvas 857 263 685 453 16;
#X obj 239 81 inlet~;
#X obj 231 281 outlet~;
#X obj 409 143 *~ 0.75;
#X obj 239 114 delwrite~ pongArray-\$0 1000;
#X obj 231 241 vd~ pongArray-\$0 500;
#X msg 181 196 500;
#X obj 170 158 loadbang;
#X connect 0 0 3 0;
#X connect 2 0 3 0;
#X connect 4 0 1 0;
#X connect 4 0 2 0;
#X connect 5 0 4 0;
#X connect 6 0 5 0;
