#N canvas 0 22 1151 589 10;
#X obj 303 135 inlet~;
#X obj 391 208 osc~ 220;
#X obj 356 134 inlet~;
#X obj 307 296 *~ 0.5;
#X obj 356 296 *~ 0.5;
#X obj 307 344 dac~ 3 4;
#X connect 0 0 3 0;
#X connect 2 0 4 0;
#X connect 3 0 5 0;
#X connect 4 0 5 1;
