#N canvas 186 160 918 548 10;
#X floatatom 179 67 5 0 0 0 - - -;
#X obj 179 228 vsl 15 128 0 1 0 0 empty empty empty 0 -9 0 10 -262144
-1 -1 1 1;
#X obj 179 389 line~;
#X msg 179 368 \$1 10;
#X obj 164 412 *~;
#X obj 774 329 phasor~ 88;
#X obj 774 351 *~ 2;
#X obj 774 373 -~ 1;
#X obj 774 395 *~ 0.2;
#X floatatom 179 137 5 0 0 0 - - -;
#X obj 200 88 r maxSpeakers;
#X obj 588 132 s maxSpeakers;
#X floatatom 588 111 5 0 0 0 - - -;
#X obj 179 191 surr 0;
#X obj 269 228 vsl 15 128 0 1 0 0 empty empty empty 0 -9 0 10 -262144
-1 -1 1 1;
#X obj 269 389 line~;
#X msg 269 368 \$1 10;
#X obj 254 412 *~;
#X obj 349 228 vsl 15 128 0 1 0 0 empty empty empty 0 -9 0 10 -262144
-1 -1 12503 1;
#X obj 349 389 line~;
#X msg 349 368 \$1 10;
#X obj 334 412 *~;
#X obj 429 228 vsl 15 128 0 1 0 0 empty empty empty 0 -9 0 10 -262144
-1 -1 2227 1;
#X obj 429 389 line~;
#X msg 429 368 \$1 10;
#X obj 414 412 *~;
#X obj 509 228 vsl 15 128 0 1 0 0 empty empty empty 0 -9 0 10 -262144
-1 -1 1 1;
#X obj 509 389 line~;
#X msg 509 368 \$1 10;
#X obj 494 412 *~;
#X obj 589 228 vsl 15 128 0 1 0 0 empty empty empty 0 -9 0 10 -262144
-1 -1 1 1;
#X obj 589 389 line~;
#X msg 589 368 \$1 10;
#X obj 574 412 *~;
#X obj 588 68 loadbang;
#X obj 179 111 fmod;
#X obj 269 191 surr 1;
#X obj 349 191 surr 2;
#X obj 429 191 surr 3;
#X obj 509 191 surr 4;
#X obj 589 191 surr 5;
#X msg 588 90 4;
#X obj 35 212 inlet~;
#X obj 164 476 dac~ 3 4 5 6;
#X obj 179 43 metro-sin-in;
#X connect 0 0 35 0;
#X connect 1 0 3 0;
#X connect 2 0 4 1;
#X connect 3 0 2 0;
#X connect 4 0 43 0;
#X connect 5 0 6 0;
#X connect 6 0 7 0;
#X connect 7 0 8 0;
#X connect 9 0 13 0;
#X connect 9 0 36 0;
#X connect 9 0 37 0;
#X connect 9 0 38 0;
#X connect 9 0 39 0;
#X connect 9 0 40 0;
#X connect 10 0 35 1;
#X connect 12 0 11 0;
#X connect 13 0 1 0;
#X connect 14 0 16 0;
#X connect 15 0 17 1;
#X connect 16 0 15 0;
#X connect 17 0 43 1;
#X connect 18 0 20 0;
#X connect 19 0 21 1;
#X connect 20 0 19 0;
#X connect 21 0 43 3;
#X connect 22 0 24 0;
#X connect 23 0 25 1;
#X connect 24 0 23 0;
#X connect 25 0 43 2;
#X connect 26 0 28 0;
#X connect 27 0 29 1;
#X connect 28 0 27 0;
#X connect 30 0 32 0;
#X connect 31 0 33 1;
#X connect 32 0 31 0;
#X connect 34 0 41 0;
#X connect 35 0 9 0;
#X connect 36 0 14 0;
#X connect 37 0 18 0;
#X connect 38 0 22 0;
#X connect 39 0 26 0;
#X connect 40 0 30 0;
#X connect 41 0 12 0;
#X connect 42 0 4 0;
#X connect 42 0 17 0;
#X connect 42 0 21 0;
#X connect 42 0 25 0;
#X connect 42 0 29 0;
#X connect 42 0 33 0;
#X connect 44 0 0 0;
