#N canvas 542 92 1259 998 10;
#X obj 78 271 pack f f;
#X obj 78 224 int;
#X obj 69 145 tgl 15 0 empty empty empty 17 7 0 10 -262144 -1 -1 0
11;
#X obj 105 225 + 1;
#X obj 132 225 % 12;
#X floatatom 11 177 5 0 0 0 - - -;
#X obj 183 237 + \$1;
#X floatatom 193 271 5 0 0 0 - - -;
#X obj 77 354 tabwrite fugue-voice-\$1;
#N canvas 46 87 450 300 (subpatch) 0;
#X array fugue-voice-\$1 12 float 3;
#A 0 97 90 77 92 84 85 89 95 81 93 79 92;
#X coords 0 100 11 0 200 140 1 0 0;
#X restore 436 60 graph;
#X obj 485 526 mtof;
#X obj 485 566 osc~;
#X obj 485 489 tabread4 fugue-voice-\$1;
#X obj 556 435 int;
#X obj 548 399 metro 300;
#X obj 546 356 tgl 15 0 empty empty empty 17 7 0 10 -262144 -1 -1 1
1;
#X obj 583 436 + 1;
#X obj 610 436 % 12;
#X floatatom 572 460 5 0 0 0 - - -;
#X obj 117 590 pack f f;
#X obj 117 543 int;
#X obj 108 464 tgl 15 0 empty empty empty 17 7 0 10 -262144 -1 -1 0
11;
#X obj 144 544 + 1;
#X obj 171 544 % 12;
#X floatatom 50 496 5 0 0 0 - - -;
#N canvas 0 0 450 300 (subpatch) 0;
#X array fugue-rhythm-\$1 12 float 3;
#A 0 1575 1275 1650 1125 1275 1575 600 1575 1875 300 450 1875;
#X coords 0 1000 11 0 200 140 1 0 0;
#X restore 677 58 graph;
#X obj 116 673 tabwrite fugue-rhythm-\$1;
#X obj 713 437 tabread4 fugue-rhythm-\$1;
#X obj 222 556 * \$1;
#X obj 237 595 + 300;
#X obj 222 523 random 24;
#X obj 183 204 random 24;
#X obj 59 91 select 11;
#X obj 98 410 select 11;
#X obj 494 691 outlet~;
#X obj 120 115 loadbang;
#X obj 136 440 loadbang;
#X obj 498 302 r start;
#X obj 581 305 r stop;
#X obj 495 645 *~;
#X obj 523 622 line~;
#X obj 612 540 r stop;
#X msg 532 582 0.25 10;
#X msg 611 597 0 10;
#X obj 538 546 r start;
#X obj 70 188 metro 3;
#X obj 109 507 metro 3;
#X connect 0 0 8 0;
#X connect 1 0 3 0;
#X connect 1 0 5 0;
#X connect 1 0 0 1;
#X connect 2 0 45 0;
#X connect 3 0 4 0;
#X connect 4 0 1 1;
#X connect 5 0 32 0;
#X connect 6 0 0 0;
#X connect 6 0 7 0;
#X connect 10 0 11 0;
#X connect 11 0 39 0;
#X connect 12 0 10 0;
#X connect 13 0 16 0;
#X connect 13 0 18 0;
#X connect 13 0 12 0;
#X connect 13 0 27 0;
#X connect 14 0 13 0;
#X connect 15 0 14 0;
#X connect 16 0 17 0;
#X connect 17 0 13 1;
#X connect 19 0 26 0;
#X connect 20 0 22 0;
#X connect 20 0 24 0;
#X connect 20 0 19 1;
#X connect 21 0 46 0;
#X connect 22 0 23 0;
#X connect 23 0 20 1;
#X connect 24 0 33 0;
#X connect 27 0 14 1;
#X connect 28 0 29 0;
#X connect 29 0 19 0;
#X connect 30 0 28 0;
#X connect 31 0 6 0;
#X connect 32 0 2 0;
#X connect 33 0 21 0;
#X connect 35 0 2 0;
#X connect 36 0 21 0;
#X connect 37 0 15 0;
#X connect 38 0 15 0;
#X connect 39 0 34 0;
#X connect 40 0 39 1;
#X connect 41 0 43 0;
#X connect 42 0 40 0;
#X connect 43 0 40 0;
#X connect 44 0 42 0;
#X connect 45 0 1 0;
#X connect 45 0 31 0;
#X connect 46 0 20 0;
#X connect 46 0 30 0;
