#N canvas 752 259 868 634 12;
#X text 33 12 //A Fugue for Bob;
#X obj 146 332 dac~;
#X obj 90 149 s start;
#X obj 162 148 s stop;
#X obj 74 279 fugue-voice 75;
#X obj 90 64 bng 45 250 50 0 empty empty Start 17 7 0 10 -4034 -1 -1
;
#X obj 162 65 bng 45 250 50 0 empty empty Stop 17 7 0 10 -258113 -1
-1;
#X obj 242 66 hsl 128 45 1 900 0 0 empty empty Frequency_Deviation
-2 -8 0 10 -260097 -1 -1 0 1;
#X obj 384 67 hsl 128 45 0.1 10 1 0 empty empty Carrier_Oscillation
-2 -8 0 10 -159808 -1 -1 3100 1;
#X obj 239 147 s deviation;
#X obj 381 146 s oscillation;
#X obj 70 246 fugue-voice-fm 60;
#X obj 241 275 fugue-voice 30;
#X obj 236 246 fugue-voice-fm 45;
#X connect 4 0 1 0;
#X connect 5 0 2 0;
#X connect 6 0 3 0;
#X connect 7 0 9 0;
#X connect 8 0 10 0;
#X connect 11 0 1 0;
#X connect 12 0 1 1;
#X connect 13 0 1 1;
