#N canvas 263 56 877 610 16;
#X obj 567 144 openpanel;
#X msg 567 175 read -resize \$1 sampleTable;
#X obj 539 77 table sampleTable;
#X obj 567 206 soundfiler;
#X obj 567 119 bng 15 250 50 0 empty empty empty 17 7 0 10 -262144
-1 -1;
#X obj 80 336 tabplay~ sampleTable;
#X obj 80 308 random;
#X obj 187 212 r sampleLength;
#X obj 567 236 s sampleLength;
#X obj 187 242 - 44100;
#X obj 80 557 dac~;
#X obj 79 192 bng 15 250 50 0 empty empty empty 17 7 0 10 -262144 -1
-1;
#X obj 80 517 *~;
#X obj 107 482 line~;
#X msg 107 446 1 10;
#X obj 79 133 tgl 15 0 empty empty empty 17 7 0 10 -262144 -1 -1 1
1;
#X obj 80 215 t b b;
#X obj 80 276 t b b;
#X obj 80 247 delay 50;
#X obj 201 415 pack f f;
#X msg 201 386 0;
#X obj 157 184 r fadeOutTime;
#X obj 278 386 r fadeOutTime;
#X obj 190 103 s fadeOutTime;
#X floatatom 190 72 5 0 0 0 - - -;
#X obj 190 16 loadbang;
#X msg 190 44 10;
#X obj 435 460 r fadeOutTime;
#X msg 435 491 0 \$1;
#X obj 200 447 print pack;
#X obj 435 521 print msg;
#X obj 79 158 metro 200;
#X connect 0 0 1 0;
#X connect 1 0 3 0;
#X connect 3 0 8 0;
#X connect 4 0 0 0;
#X connect 5 0 12 0;
#X connect 6 0 5 0;
#X connect 7 0 9 0;
#X connect 9 0 6 1;
#X connect 11 0 16 0;
#X connect 12 0 10 0;
#X connect 12 0 10 1;
#X connect 13 0 12 1;
#X connect 14 0 13 0;
#X connect 15 0 31 0;
#X connect 16 0 18 0;
#X connect 16 1 20 0;
#X connect 17 0 14 0;
#X connect 17 1 6 0;
#X connect 18 0 17 0;
#X connect 19 0 13 0;
#X connect 19 0 29 0;
#X connect 20 0 19 0;
#X connect 21 0 18 1;
#X connect 22 0 19 1;
#X connect 24 0 23 0;
#X connect 25 0 26 0;
#X connect 26 0 24 0;
#X connect 27 0 28 0;
#X connect 28 0 30 0;
#X connect 31 0 11 0;
