#N canvas 0 95 1366 673 16;
#X text 39 26 //level control;
#X obj 38 123 osc~ 220;
#X text 134 121 //sine tone generator;
#X floatatom 38 72 5 0 0 0 - - -;
#X obj 37 376 dac~;
#X text 54 163 //audio oscillating between -1 and 1;
#X obj 37 326 *~ 1;
#X obj 77 191 hsl 128 15 0 1 0 0 empty empty empty -2 -8 0 10 -262144
-1 -1 0 1;
#X msg 104 221 0;
#X msg 159 223 0.5;
#X msg 219 227 1;
#X text 276 200 //lots of pops very bad! instantly jumping from one
amplitude to another;
#X obj 125 323 line~;
#X obj 248 322 line;
#X text 320 322 //ramp to a new value over a set amount of time;
#X text 321 353 //takles an incoming list of (target time(ms));
#X msg 199 290 50 3000;
#X floatatom 248 364 5 0 0 0 - - -;
#X text 291 289 ramp to 50 over 3000ms;
#X text 259 263;
#X msg 248 260 20 500;
#X text 331 260 ramp to 20 over 500ms;
#X obj 51 489 osc~ 220;
#X floatatom 51 438 5 0 0 0 - - -;
#X obj 50 742 dac~;
#X text 76 593;
#X obj 77 654 line~;
#X text 148 656 //ramp our gain value (per sample~) to the desired
target;
#X msg 87 584 0 500;
#X msg 159 583 1 3000;
#X msg 243 582 2 3000;
#X obj 49 691 *~;
#X connect 1 0 6 0;
#X connect 3 0 1 0;
#X connect 6 0 4 0;
#X connect 6 0 4 1;
#X connect 7 0 6 1;
#X connect 13 0 17 0;
#X connect 16 0 13 0;
#X connect 20 0 13 0;
#X connect 22 0 31 0;
#X connect 23 0 22 0;
#X connect 26 0 31 1;
#X connect 28 0 26 0;
#X connect 29 0 26 0;
#X connect 30 0 26 0;
#X connect 31 0 24 0;
#X connect 31 0 24 1;
