#N canvas 0 95 1366 673 10;
#X obj 273 136 bng 15 250 50 0 empty empty empty 17 7 0 10 -262144
-1 -1;
#X msg 302 154 stop;
#X msg 343 172 44100;
#X obj 301 305 tabplay~ array1;
#X text 391 172 //start playing at this sample index;
#X msg 354 197 0 88200;
#X text 421 200 //start at 0 and play for 88200 samples;
#X text 421 299 tablay~ can bang when it finishes;
#X obj 478 376;
#X connect 2 0 3 0;
#X connect 5 0 3 0;
