#N canvas 0 95 1366 673 16;
#X obj 50 78 soundfiler;
#X msg 49 41 read -resize sine220.wav array1;
#X obj 50 149 t b b;
#X obj 49 125 bng 15 250 50 0 empty empty empty 17 7 0 10 -262144 -1
-1;
#X obj 50 251 bng 15 250 50 0 empty empty empty 17 7 0 10 -262144 -1
-1;
#X msg 271 210 stop;
#X obj 44 277 tabplay~ array1;
#X msg 113 332 1 1000;
#X obj 131 394 line~;
#X obj 55 431 *~;
#X obj 60 491 dac~;
#X obj 276 136 t b b;
#X obj 279 107 bng 15 250 50 0 empty empty empty 17 7 0 10 -262144
-1 -1;
#X obj 462 66 table array1;
#X text 423 194 //delays a bang message by the number of ms indicated
;
#X obj 439 349 pack;
#X floatatom 427 306 5 0 0 0 - - -;
#X floatatom 495 305 5 0 0 0 - - -;
#X obj 435 393 print;
#X text 502 346 //dynamically build a list;
#X msg 240 335 0 1000;
#X msg 329 306 0;
#X obj 328 345 pack;
#X obj 269 182 delay;
#X floatatom 385 151 5 0 0 0 - - -;
#X text 448 150 dynamic fade out time (ms);
#X msg 371 115 5000;
#X text 435 112 comment;
#X connect 1 0 0 0;
#X connect 2 0 7 0;
#X connect 2 1 4 0;
#X connect 3 0 2 0;
#X connect 4 0 6 0;
#X connect 5 0 6 0;
#X connect 6 0 9 0;
#X connect 7 0 8 0;
#X connect 8 0 9 1;
#X connect 9 0 10 0;
#X connect 9 0 10 1;
#X connect 11 0 23 0;
#X connect 11 1 21 0;
#X connect 12 0 11 0;
#X connect 15 0 18 0;
#X connect 16 0 15 0;
#X connect 17 0 15 1;
#X connect 20 0 8 0;
#X connect 21 0 22 0;
#X connect 22 0 8 0;
#X connect 23 0 5 0;
#X connect 24 0 23 1;
#X connect 24 0 22 1;
