#N canvas 0 95 1366 673 16;
#X obj 223 87 send dog;
#X obj 224 126 receive dog;
#X floatatom 223 57 5 0 0 0 - - -;
#X floatatom 224 168 5 0 0 0 - - -;
#X obj 343 126 receive dog;
#X floatatom 343 166 5 0 0 0 - - -;
#X obj 468 128 receive dog;
#X floatatom 468 170 5 0 0 0 - - -;
#X floatatom 224 224 5 0 0 0 - - -;
#X obj 225 253 s cat;
#X floatatom 289 223 5 0 0 0 - - -;
#X obj 290 252 s cat;
#X floatatom 225 336 5 0 0 0 - - -;
#X floatatom 344 334 5 0 0 0 - - -;
#X floatatom 469 338 5 0 0 0 - - -;
#X obj 225 294 r cat;
#X obj 344 294 r cat;
#X obj 472 296 r cat;
#X text 221 9 //send and receive;
#X connect 1 0 3 0;
#X connect 2 0 0 0;
#X connect 4 0 5 0;
#X connect 6 0 7 0;
#X connect 8 0 9 0;
#X connect 10 0 11 0;
#X connect 15 0 12 0;
#X connect 16 0 13 0;
#X connect 17 0 14 0;
