#N canvas 0 95 1366 673 16;
#X text 33 18 //sub patches;
#N canvas 562 269 450 300 subpatchName 0;
#X text 60 46 //hi there!;
#X restore 50 99 pd subpatchName;
#N canvas 407 253 450 300 subpatchWithInlet 0;
#X obj 57 41 inlet;
#X floatatom 57 80 5 0 0 0 - - -;
#X obj 140 35 inlet;
#X floatatom 140 74 5 0 0 0 - - -;
#X obj 204 39 inlet;
#X floatatom 204 78 5 0 0 0 - - -;
#X obj 273 41 inlet;
#X floatatom 282 81 5 0 0 0 - - -;
#X connect 0 0 1 0;
#X connect 2 0 3 0;
#X connect 4 0 5 0;
#X connect 6 0 7 0;
#X restore 50 147 pd subpatchWithInlet;
