#N canvas 644 92 660 686 16;
#X obj -293 666 dac~;
#X obj -298 79 bng 60 250 50 0 empty empty empty 17 7 0 10 -159808
-1 -1;
#X obj -293 622 *~;
#X text -179 692 'when the carnival comes ...wav by BoilingSand from
Freesound.org;
#X obj 41 366 tabplay~ carnival1;
#X obj 41 332 delay 2000;
#N canvas 308 87 1054 686 loadbang 0;
#X obj -1408 62 loadbang;
#X obj -1411 249 soundfiler;
#X msg -1344 179 read -resize sine-220.wav sine-220;
#X obj -945 79 table sine-220;
#X msg -1343 142 read -resize saw-110.wav saw-110;
#X obj -948 110 table saw-110;
#X msg -1178 263 read -resize when-the-carnival-1.wav carnival1;
#X obj -952 146 table carnival1;
#X text -1411 16 //LoadBang;
#X obj -1178 311 soundfiler;
#X obj -1178 351 print;
#X obj -1303 466 soundfiler;
#X obj -1303 558 print;
#X obj -950 183 table itRains;
#X msg -1303 417 read -resize it-rains.wav itRains;
#X obj -949 47 table sine-440;
#X msg -1348 207 read -resize sine-440.wav sine-440;
#X connect 0 0 2 0;
#X connect 0 0 4 0;
#X connect 0 0 6 0;
#X connect 0 0 14 0;
#X connect 0 0 16 0;
#X connect 2 0 1 0;
#X connect 4 0 1 0;
#X connect 6 0 9 0;
#X connect 9 0 10 0;
#X connect 11 0 12 0;
#X connect 14 0 11 0;
#X connect 16 0 1 0;
#X restore -307 4 pd loadbang;
#X obj -9 489 tabread4~ carnival1;
#X obj -12 460 line~;
#X msg -15 431 120558 \, 1 2000;
#X obj 202 465 tabread4~ carnival1;
#X obj 199 436 line~;
#X msg 196 405 1 \, 120558 2000;
#X obj -195 633 *~;
#X obj 116 561 delay 2000;
#X obj 221 659 tabread4~ carnival1;
#X obj 218 630 line~;
#X msg 216 598 1 \, 120558 4000;
#X obj -2 655 tabread4~ carnival1;
#X obj -5 626 line~;
#X msg -8 597 120558 \, 1 4000;
#N canvas 105 138 549 577 metro 0;
#X obj 79 287 random 2;
#X obj 78 191 tgl 15 0 empty empty empty 17 7 0 10 -262144 -1 -1 0
1;
#X floatatom 79 333 5 0 0 0 - - -;
#X obj 166 266 bng 15 250 50 0 empty empty empty 17 7 0 10 -262144
-1 -1;
#X obj 79 402 select 0 1;
#X obj 79 442 bng 15 250 50 0 empty empty empty 17 7 0 10 -262144 -1
-1;
#X obj 127 450 bng 15 250 50 0 empty empty empty 17 7 0 10 -262144
-1 -1;
#X obj 176 445 bng 15 250 50 0 empty empty empty 17 7 0 10 -262144
-1 -1;
#X obj 79 7 inlet;
#X obj 25 481 tabplay~ itRains;
#X obj 209 475 tabplay~ itRains;
#X obj 35 539 s~ dacl;
#X obj 209 524 s~ dacr;
#X obj 79 233 metro 750;
#X obj 104 59 delay 8000;
#X obj 85 98 delay 16000;
#X connect 0 0 2 0;
#X connect 1 0 13 0;
#X connect 2 0 4 0;
#X connect 4 0 5 0;
#X connect 4 1 6 0;
#X connect 4 2 7 0;
#X connect 5 0 9 0;
#X connect 6 0 10 0;
#X connect 8 0 14 0;
#X connect 8 0 15 0;
#X connect 9 0 11 0;
#X connect 10 0 12 0;
#X connect 13 0 0 0;
#X connect 13 0 3 0;
#X connect 14 0 1 0;
#X connect 15 0 1 0;
#X restore -237 199 pd metro;
#X obj -287 469 r~ dacl;
#X obj -175 470 r~ dacr;
#N canvas 121 215 450 300 sine-saw 0;
#X obj -305 -1222 tabplay~ sine-220;
#X obj -288 -1186 tabplay~ sine-220;
#X obj -246 -1143 tabplay~ saw-110;
#X obj -218 -1101 /~ 8;
#X obj -305 -1269 inlet;
#X obj -166 -1044 outlet~;
#X obj -301 -1049 outlet~;
#X connect 0 0 6 0;
#X connect 0 1 1 0;
#X connect 1 0 5 0;
#X connect 1 1 2 0;
#X connect 2 0 3 0;
#X connect 3 0 6 0;
#X connect 4 0 0 0;
#X restore -308 432 pd sine-saw;
#X obj -74 335 line~;
#X msg -46 214 0.8 30;
#X obj -35 172 loadbang;
#X msg 54 296 0 400;
#X obj 52 260 delay 15600;
#X text -224 93 Play Button;
#X connect 1 0 5 0;
#X connect 1 0 21 0;
#X connect 1 0 24 0;
#X connect 1 0 29 0;
#X connect 2 0 0 0;
#X connect 4 0 13 0;
#X connect 4 1 9 0;
#X connect 4 1 12 0;
#X connect 4 1 14 0;
#X connect 5 0 4 0;
#X connect 7 0 2 0;
#X connect 8 0 7 0;
#X connect 9 0 8 0;
#X connect 10 0 13 0;
#X connect 11 0 10 0;
#X connect 12 0 11 0;
#X connect 13 0 0 1;
#X connect 14 0 17 0;
#X connect 14 0 20 0;
#X connect 15 0 2 0;
#X connect 16 0 15 0;
#X connect 17 0 16 0;
#X connect 18 0 13 0;
#X connect 19 0 18 0;
#X connect 20 0 19 0;
#X connect 22 0 2 0;
#X connect 23 0 13 0;
#X connect 24 0 2 0;
#X connect 24 1 13 0;
#X connect 25 0 2 1;
#X connect 25 0 13 1;
#X connect 26 0 25 0;
#X connect 27 0 26 0;
#X connect 28 0 25 0;
#X connect 29 0 28 0;
