#N canvas 465 114 590 372 16;
#X obj -73 226 osc~;
#X obj -73 320 dac~;
#X floatatom -73 164 5 0 0 0 - - -;
#X obj -73 194 mtof;
#X obj -73 266 *~ 0.2;
#X obj -73 37 metro 100;
#X obj -73 16 tgl 15 0 empty empty empty 17 7 0 10 -262144 -1 -1 0
1;
#X obj -73 125 + 30;
#X obj -73 96 * 2;
#X obj -73 66 random 20;
#X text -24 124 //offset to minimum note #30;
#X text 27 65 //generate a random midi note #(0-19);
#X text -14 164 //midi note number;
#X text -25 194 //conversion to frequency;
#X connect 0 0 4 0;
#X connect 2 0 3 0;
#X connect 3 0 0 0;
#X connect 4 0 1 0;
#X connect 4 0 1 1;
#X connect 5 0 9 0;
#X connect 6 0 5 0;
#X connect 7 0 2 0;
#X connect 8 0 7 0;
#X connect 9 0 8 0;
